<?xml version="1.0" encoding="UTF-8"?><svg id="Layer_1" xmlns="http://www.w3.org/2000/svg" viewBox="0 0 1600 946.81"><g opacity=".35"><path d="M800,373.45L953.4,0h235.57v639.15h-196.31v-186.27l-80.35,186.27h-224.62l-80.35-186.27v186.27h-196.31V0h235.57l153.4,373.45Z" fill="#fff"/></g><path d="M1188.97,0h-235.57l-153.4,373.45L646.6,0h-235.57l276.66,639.15h224.62L1188.97,0Z" fill="#fff"/><rect x="20.9" y="678.01" width="1558.21" height="137.31" fill="none"/><path d="M43.8,759.31v-56.65h-22.46v-20.05h70.78v20.05h-22.46v56.65h-25.86Z" fill="#fff"/><path d="M139.67,698.28c4.6,0,8.77.93,12.49,2.79s6.67,4.77,8.82,8.71c2.15,3.94,3.23,9.06,3.23,15.34v34.19h-24.76v-29.91c0-3.73-.66-6.37-1.97-7.95-1.31-1.57-3.11-2.36-5.37-2.36-1.68,0-3.23.38-4.66,1.15-1.42.77-2.56,2.03-3.4,3.78-.84,1.75-1.26,4.13-1.26,7.12v28.16h-24.76v-81.3h24.76v38.9l-5.92-5.04c2.34-4.53,5.5-7.93,9.48-10.19,3.98-2.26,8.42-3.4,13.31-3.4Z" fill="#fff"/><path d="M208.04,760.4c-7.31,0-13.68-1.35-19.12-4.05-5.44-2.7-9.66-6.41-12.66-11.12-3-4.71-4.49-10.03-4.49-15.94s1.48-11.43,4.44-16.11c2.96-4.67,7.01-8.33,12.16-10.96,5.15-2.63,10.94-3.95,17.37-3.95,5.92,0,11.38,1.17,16.38,3.51,5,2.34,9.02,5.81,12.05,10.41,3.03,4.6,4.55,10.3,4.55,17.09,0,.88-.04,1.84-.11,2.9-.07,1.06-.15,2.03-.22,2.9h-46.13v-11.94h32.98l-9.31,3.18c0-2.34-.42-4.33-1.26-5.97-.84-1.64-1.99-2.92-3.45-3.83-1.46-.91-3.22-1.37-5.26-1.37s-3.82.46-5.31,1.37c-1.5.91-2.65,2.19-3.45,3.83-.8,1.64-1.21,3.63-1.21,5.97v3.72c0,2.56.51,4.75,1.53,6.57,1.02,1.83,2.48,3.2,4.38,4.11,1.9.91,4.2,1.37,6.9,1.37s5.06-.37,6.85-1.1c1.79-.73,3.67-1.82,5.64-3.29l12.93,13.04c-2.92,3.14-6.52,5.53-10.79,7.18-4.27,1.64-9.41,2.46-15.39,2.46Z" fill="#fff"/><path d="M304.24,759.31l-32.43-76.7h27.83l26.41,64.76h-16.54l27.17-64.76h25.42l-32.43,76.7h-25.42Z" fill="#fff"/><path d="M384.77,760.4c-4.89,0-8.98-.84-12.27-2.52-3.29-1.68-5.77-3.92-7.45-6.74-1.68-2.81-2.52-5.93-2.52-9.37,0-3.87.99-7.16,2.96-9.86,1.97-2.7,4.99-4.75,9.04-6.14,4.05-1.39,9.19-2.08,15.39-2.08h12.49v11.94h-8.55c-2.63,0-4.55.42-5.75,1.26-1.21.84-1.81,2.1-1.81,3.78,0,1.39.53,2.54,1.59,3.45,1.06.91,2.5,1.37,4.33,1.37,1.68,0,3.23-.46,4.66-1.37,1.42-.91,2.46-2.36,3.12-4.33l3.18,7.34c-.95,4.46-2.96,7.78-6.03,9.97-3.07,2.19-7.2,3.29-12.38,3.29ZM401.76,759.31v-10.63l-1.75-2.85v-20.16c0-2.92-.89-5.15-2.68-6.68-1.79-1.53-4.69-2.3-8.71-2.3-2.7,0-5.44.42-8.22,1.26-2.78.84-5.15,1.99-7.12,3.45l-7.89-16.32c3.51-2.19,7.71-3.87,12.6-5.04,4.89-1.17,9.68-1.75,14.35-1.75,10.3,0,18.28,2.3,23.94,6.9,5.66,4.6,8.49,11.91,8.49,21.91v32.21h-23.01Z" fill="#fff"/><path d="M435.5,759.31v-81.3h24.76v81.3h-24.76Z" fill="#fff"/><path d="M483.6,694.55c-4.53,0-8.15-1.21-10.85-3.62-2.7-2.41-4.05-5.4-4.05-8.98s1.35-6.57,4.05-8.98c2.7-2.41,6.32-3.62,10.85-3.62s8.14,1.13,10.85,3.4c2.7,2.27,4.05,5.19,4.05,8.77,0,3.8-1.35,6.92-4.05,9.37-2.7,2.45-6.32,3.67-10.85,3.67ZM471.22,759.31v-59.94h24.76v59.94h-24.76Z" fill="#fff"/><path d="M533.23,760.4c-5.19,0-9.99-1.26-14.41-3.78-4.42-2.52-7.94-6.1-10.57-10.74-2.63-4.64-3.94-10.17-3.94-16.6s1.32-11.96,3.94-16.6c2.63-4.64,6.15-8.2,10.57-10.68,4.42-2.48,9.22-3.73,14.41-3.73s9.57,1.12,12.93,3.34c3.36,2.23,5.84,5.63,7.45,10.19,1.61,4.56,2.41,10.39,2.41,17.48s-.75,13.04-2.25,17.64c-1.5,4.6-3.91,8-7.23,10.19-3.33,2.19-7.76,3.29-13.31,3.29ZM539.15,741.12c1.83,0,3.47-.44,4.93-1.31,1.46-.88,2.63-2.21,3.51-4,.88-1.79,1.31-3.96,1.31-6.52s-.44-4.8-1.31-6.52c-.88-1.72-2.05-3.01-3.51-3.89-1.46-.88-3.11-1.31-4.93-1.31s-3.47.44-4.93,1.31c-1.46.88-2.63,2.17-3.51,3.89s-1.31,3.89-1.31,6.52.44,4.73,1.31,6.52c.88,1.79,2.04,3.12,3.51,4,1.46.88,3.1,1.31,4.93,1.31ZM549.67,759.31v-8.11l-.11-21.91-1.1-21.91v-29.37h24.76v81.3h-23.56Z" fill="#fff"/><path d="M603.47,760.4c-4.89,0-8.98-.84-12.27-2.52-3.29-1.68-5.77-3.92-7.45-6.74-1.68-2.81-2.52-5.93-2.52-9.37,0-3.87.99-7.16,2.96-9.86,1.97-2.7,4.99-4.75,9.04-6.14,4.05-1.39,9.19-2.08,15.39-2.08h12.49v11.94h-8.55c-2.63,0-4.55.42-5.75,1.26-1.21.84-1.81,2.1-1.81,3.78,0,1.39.53,2.54,1.59,3.45,1.06.91,2.5,1.37,4.33,1.37,1.68,0,3.23-.46,4.66-1.37,1.42-.91,2.46-2.36,3.12-4.33l3.18,7.34c-.95,4.46-2.96,7.78-6.03,9.97-3.07,2.19-7.2,3.29-12.38,3.29ZM620.45,759.31v-10.63l-1.75-2.85v-20.16c0-2.92-.89-5.15-2.68-6.68-1.79-1.53-4.69-2.3-8.71-2.3-2.7,0-5.44.42-8.22,1.26-2.78.84-5.15,1.99-7.12,3.45l-7.89-16.32c3.51-2.19,7.71-3.87,12.6-5.04,4.89-1.17,9.68-1.75,14.35-1.75,10.3,0,18.28,2.3,23.94,6.9,5.66,4.6,8.49,11.91,8.49,21.91v32.21h-23.01Z" fill="#fff"/><path d="M648.72,720.74v-18.08h45.25v18.08h-45.25ZM683.12,760.4c-8.25,0-14.68-1.99-19.28-5.97-4.6-3.98-6.9-10.1-6.9-18.35v-50.18h24.76v49.96c0,1.83.49,3.25,1.48,4.27.99,1.03,2.21,1.54,3.67,1.54,2.12,0,3.98-.55,5.59-1.64l5.92,17.2c-1.9,1.1-4.18,1.9-6.85,2.41-2.67.51-5.46.77-8.38.77Z" fill="#fff"/><path d="M716.98,694.55c-4.53,0-8.15-1.21-10.85-3.62-2.7-2.41-4.05-5.4-4.05-8.98s1.35-6.57,4.05-8.98c2.7-2.41,6.32-3.62,10.85-3.62s8.14,1.13,10.85,3.4c2.7,2.27,4.05,5.19,4.05,8.77,0,3.8-1.35,6.92-4.05,9.37-2.7,2.45-6.32,3.67-10.85,3.67ZM704.6,759.31v-59.94h24.76v59.94h-24.76Z" fill="#fff"/><path d="M771.98,760.4c-6.79,0-12.8-1.33-18.02-4-5.22-2.67-9.33-6.34-12.33-11.01-3-4.67-4.49-10.04-4.49-16.11s1.5-11.43,4.49-16.11c2.99-4.67,7.1-8.33,12.33-10.96,5.22-2.63,11.23-3.95,18.02-3.95s12.82,1.32,18.08,3.95c5.26,2.63,9.37,6.28,12.33,10.96,2.96,4.68,4.44,10.04,4.44,16.11s-1.48,11.43-4.44,16.11c-2.96,4.68-7.07,8.35-12.33,11.01-5.26,2.67-11.29,4-18.08,4ZM771.98,741.12c1.83,0,3.47-.44,4.93-1.31,1.46-.88,2.63-2.21,3.51-4,.88-1.79,1.31-3.96,1.31-6.52s-.44-4.8-1.31-6.52c-.88-1.72-2.05-3.01-3.51-3.89-1.46-.88-3.11-1.31-4.93-1.31s-3.47.44-4.93,1.31c-1.46.88-2.63,2.17-3.51,3.89s-1.31,3.89-1.31,6.52.44,4.73,1.31,6.52c.88,1.79,2.04,3.12,3.51,4,1.46.88,3.1,1.31,4.93,1.31Z" fill="#fff"/><path d="M856.24,698.28c4.6,0,8.77.93,12.49,2.79s6.67,4.77,8.82,8.71c2.15,3.94,3.23,9.06,3.23,15.34v34.19h-24.76v-29.91c0-3.73-.66-6.37-1.97-7.95-1.31-1.57-3.11-2.36-5.37-2.36-1.68,0-3.23.38-4.66,1.15-1.42.77-2.56,2.03-3.4,3.78-.84,1.75-1.26,4.13-1.26,7.12v28.16h-24.76v-59.94h23.56v17.53l-4.71-5.04c2.34-4.53,5.5-7.93,9.48-10.19,3.98-2.26,8.42-3.4,13.31-3.4Z" fill="#fff"/><path d="M925.15,759.31v-76.7h21.26l30.68,50.07h-11.18l29.8-50.07h21.26l.22,76.7h-23.56l-.22-41.2h3.73l-20.38,34.29h-11.4l-21.26-34.29h4.6v41.2h-23.56Z" fill="#fff"/><path d="M1060.58,760.4c-6.79,0-12.8-1.33-18.02-4-5.22-2.67-9.33-6.34-12.33-11.01-3-4.67-4.49-10.04-4.49-16.11s1.5-11.43,4.49-16.11c2.99-4.67,7.1-8.33,12.33-10.96,5.22-2.63,11.23-3.95,18.02-3.95s12.82,1.32,18.08,3.95c5.26,2.63,9.37,6.28,12.33,10.96,2.96,4.68,4.44,10.04,4.44,16.11s-1.48,11.43-4.44,16.11c-2.96,4.68-7.07,8.35-12.33,11.01-5.26,2.67-11.29,4-18.08,4ZM1060.58,741.12c1.83,0,3.47-.44,4.93-1.31,1.46-.88,2.63-2.21,3.51-4,.88-1.79,1.31-3.96,1.31-6.52s-.44-4.8-1.31-6.52c-.88-1.72-2.05-3.01-3.51-3.89-1.46-.88-3.11-1.31-4.93-1.31s-3.47.44-4.93,1.31c-1.46.88-2.63,2.17-3.51,3.89s-1.31,3.89-1.31,6.52.44,4.73,1.31,6.52c.88,1.79,2.04,3.12,3.51,4,1.46.88,3.1,1.31,4.93,1.31Z" fill="#fff"/><path d="M1120.19,759.31l-24.11-59.94h25.42l18.3,48.65h-12.82l19.5-48.65h23.45l-24.11,59.94h-25.64Z" fill="#fff"/><path d="M1206.85,760.4c-7.31,0-13.68-1.35-19.12-4.05-5.44-2.7-9.66-6.41-12.66-11.12-3-4.71-4.49-10.03-4.49-15.94s1.48-11.43,4.44-16.11c2.96-4.67,7.01-8.33,12.16-10.96,5.15-2.63,10.94-3.95,17.37-3.95,5.92,0,11.38,1.17,16.38,3.51,5,2.34,9.02,5.81,12.05,10.41,3.03,4.6,4.55,10.3,4.55,17.09,0,.88-.04,1.84-.11,2.9-.07,1.06-.15,2.03-.22,2.9h-46.13v-11.94h32.98l-9.31,3.18c0-2.34-.42-4.33-1.26-5.97-.84-1.64-1.99-2.92-3.45-3.83-1.46-.91-3.22-1.37-5.26-1.37s-3.82.46-5.31,1.37c-1.5.91-2.65,2.19-3.45,3.83-.8,1.64-1.21,3.63-1.21,5.97v3.72c0,2.56.51,4.75,1.53,6.57,1.02,1.83,2.48,3.2,4.38,4.11,1.9.91,4.2,1.37,6.9,1.37s5.06-.37,6.85-1.1c1.79-.73,3.67-1.82,5.64-3.29l12.93,13.04c-2.92,3.14-6.52,5.53-10.79,7.18-4.27,1.64-9.41,2.46-15.39,2.46Z" fill="#fff"/><path d="M1324.64,698.28c4.53,0,8.6.93,12.22,2.79,3.62,1.86,6.46,4.77,8.55,8.71,2.08,3.94,3.12,9.06,3.12,15.34v34.19h-24.76v-29.91c0-3.73-.62-6.37-1.86-7.95-1.24-1.57-2.85-2.36-4.82-2.36-1.46,0-2.78.37-3.94,1.1-1.17.73-2.1,1.88-2.79,3.45-.7,1.57-1.04,3.71-1.04,6.41v29.26h-24.76v-29.91c0-3.73-.59-6.37-1.75-7.95-1.17-1.57-2.81-2.36-4.93-2.36-1.46,0-2.78.37-3.94,1.1-1.17.73-2.1,1.88-2.79,3.45-.7,1.57-1.04,3.71-1.04,6.41v29.26h-24.76v-59.94h23.56v17.2l-4.82-4.82c2.26-4.53,5.29-7.91,9.09-10.14,3.8-2.23,8.04-3.34,12.71-3.34,5.26,0,9.92,1.37,13.97,4.11,4.05,2.74,6.77,7.07,8.16,12.98l-7.56-1.21c2.19-4.97,5.39-8.86,9.59-11.67,4.2-2.81,9.08-4.22,14.63-4.22Z" fill="#fff"/><path d="M1392.35,760.4c-7.31,0-13.68-1.35-19.12-4.05-5.44-2.7-9.66-6.41-12.66-11.12-3-4.71-4.49-10.03-4.49-15.94s1.48-11.43,4.44-16.11c2.96-4.67,7.01-8.33,12.16-10.96,5.15-2.63,10.94-3.95,17.37-3.95,5.92,0,11.38,1.17,16.38,3.51,5,2.34,9.02,5.81,12.05,10.41,3.03,4.6,4.55,10.3,4.55,17.09,0,.88-.04,1.84-.11,2.9-.07,1.06-.15,2.03-.22,2.9h-46.13v-11.94h32.98l-9.31,3.18c0-2.34-.42-4.33-1.26-5.97-.84-1.64-1.99-2.92-3.45-3.83-1.46-.91-3.22-1.37-5.26-1.37s-3.82.46-5.31,1.37c-1.5.91-2.65,2.19-3.45,3.83-.8,1.64-1.21,3.63-1.21,5.97v3.72c0,2.56.51,4.75,1.53,6.57,1.02,1.83,2.48,3.2,4.38,4.11,1.9.91,4.2,1.37,6.9,1.37s5.06-.37,6.85-1.1c1.79-.73,3.67-1.82,5.64-3.29l12.93,13.04c-2.92,3.14-6.52,5.53-10.79,7.18-4.27,1.64-9.41,2.46-15.39,2.46Z" fill="#fff"/><path d="M1472.45,698.28c4.6,0,8.77.93,12.49,2.79s6.67,4.77,8.82,8.71c2.15,3.94,3.23,9.06,3.23,15.34v34.19h-24.76v-29.91c0-3.73-.66-6.37-1.97-7.95-1.31-1.57-3.11-2.36-5.37-2.36-1.68,0-3.23.38-4.66,1.15-1.42.77-2.56,2.03-3.4,3.78-.84,1.75-1.26,4.13-1.26,7.12v28.16h-24.76v-59.94h23.56v17.53l-4.71-5.04c2.34-4.53,5.5-7.93,9.48-10.19,3.98-2.26,8.42-3.4,13.31-3.4Z" fill="#fff"/><path d="M1502.25,720.74v-18.08h45.25v18.08h-45.25ZM1536.66,760.4c-8.25,0-14.68-1.99-19.28-5.97-4.6-3.98-6.9-10.1-6.9-18.35v-50.18h24.76v49.96c0,1.83.49,3.25,1.48,4.27.99,1.03,2.21,1.54,3.67,1.54,2.12,0,3.98-.55,5.59-1.64l5.92,17.2c-1.9,1.1-4.18,1.9-6.85,2.41-2.67.51-5.46.77-8.38.77Z" fill="#fff"/><rect y="809.49" width="1600" height="137.31" fill="none"/><path d="M50.56,814.49c-.18,1.75-.3,3.46-.36,5.13-.07,1.67-.1,2.94-.1,3.81,0,1.05.02,2.03.07,2.93.04.9.09,1.68.13,2.33h-1.51c-.39-3.2-.93-5.71-1.61-7.53-.68-1.82-1.7-3.13-3.06-3.94s-3.31-1.22-5.85-1.22h-3.48c-1.4,0-2.47.12-3.19.36-.72.24-1.22.72-1.48,1.45-.26.72-.39,1.85-.39,3.38v32.74c0,1.62.17,2.84.53,3.65.35.81,1.01,1.35,1.97,1.61.96.26,2.39.42,4.27.46v1.38c-1.18-.09-2.72-.14-4.6-.16-1.88-.02-3.84-.03-5.85-.03-1.75,0-3.43.01-5.03.03-1.6.02-2.95.08-4.04.16v-1.31c1.49-.09,2.61-.26,3.35-.53.74-.26,1.24-.79,1.48-1.58.24-.79.36-1.97.36-3.55v-32.61c0-1.62-.13-2.82-.39-3.58-.26-.77-.77-1.29-1.51-1.58-.75-.28-1.84-.45-3.29-.49v-1.31c1.71.04,3.5.08,5.36.1,1.86.02,3.7.04,5.52.07,1.82.02,3.52.03,5.09.03h3.88c2.02,0,4.31-.01,6.87-.03,2.56-.02,4.85-.08,6.87-.16ZM40.5,837.5v1.31h-12.75v-1.31h12.75ZM41.88,828.82c-.17,2.5-.25,4.4-.23,5.72.02,1.31.03,2.52.03,3.62s.02,2.3.07,3.62c.04,1.32.15,3.22.33,5.72h-1.51c-.18-1.45-.44-2.84-.79-4.18-.35-1.34-.99-2.42-1.91-3.25-.92-.83-2.3-1.25-4.14-1.25v-1.31c1.4,0,2.51-.29,3.32-.86.81-.57,1.44-1.31,1.87-2.23.44-.92.76-1.88.95-2.86.2-.98.36-1.89.49-2.73h1.51Z" fill="#fff"/><path d="M68.97,826.19c2.94,0,5.54.62,7.82,1.84,2.28,1.23,4.1,3.15,5.46,5.79,1.36,2.63,2.04,6.07,2.04,10.32s-.68,7.68-2.04,10.29c-1.36,2.61-3.18,4.51-5.46,5.72-2.28,1.21-4.89,1.81-7.82,1.81s-5.5-.6-7.82-1.81-4.15-3.11-5.49-5.72-2-6.04-2-10.29.67-7.69,2-10.32c1.34-2.63,3.17-4.56,5.49-5.79s4.93-1.84,7.82-1.84ZM68.97,827.5c-2.28,0-4.14,1.3-5.59,3.91s-2.17,6.85-2.17,12.72.72,10.09,2.17,12.66c1.45,2.56,3.31,3.85,5.59,3.85s4.09-1.28,5.56-3.85c1.47-2.56,2.2-6.78,2.2-12.66s-.73-10.11-2.2-12.72c-1.47-2.61-3.32-3.91-5.56-3.91Z" fill="#fff"/><path d="M110.12,826.19c1.27,0,2.36.26,3.25.79.9.53,1.58,1.2,2.04,2.01.46.81.69,1.72.69,2.73,0,1.27-.38,2.36-1.15,3.25s-1.79,1.35-3.06,1.35c-1.1,0-2.03-.33-2.79-.99-.77-.66-1.15-1.55-1.15-2.7,0-.96.25-1.79.76-2.46.5-.68,1.08-1.22,1.74-1.61-.44-.35-.96-.5-1.58-.46-1.18.04-2.28.43-3.29,1.15-1.01.72-1.86,1.64-2.56,2.76-.7,1.12-1.25,2.31-1.64,3.58-.39,1.27-.59,2.46-.59,3.55v15.12c0,2.15.59,3.58,1.78,4.31,1.18.72,2.83,1.08,4.93,1.08v1.38c-1.01-.04-2.44-.1-4.31-.16-1.86-.07-3.82-.1-5.88-.1-1.58,0-3.16.03-4.73.1-1.58.06-2.78.12-3.62.16v-1.38c1.71,0,2.92-.33,3.65-.99.72-.66,1.08-1.91,1.08-3.75v-20.64c0-1.97-.33-3.43-.99-4.37-.66-.94-1.91-1.41-3.75-1.41v-1.38c1.4.13,2.76.2,4.08.2,1.49,0,2.88-.08,4.17-.23,1.29-.15,2.49-.38,3.58-.69v7.56c.53-1.27,1.23-2.5,2.1-3.68s1.93-2.16,3.16-2.93c1.23-.77,2.58-1.15,4.08-1.15Z" fill="#fff"/><path d="M143.98,816.26v10.91h9.07v1.31h-9.07v25.84c0,1.8.33,3.07.99,3.81s1.6,1.12,2.83,1.12c1.14,0,2.16-.46,3.06-1.38s1.68-2.47,2.33-4.67l1.25.46c-.53,2.32-1.46,4.29-2.79,5.88-1.34,1.6-3.3,2.4-5.88,2.4-1.49,0-2.74-.19-3.75-.56-1.01-.37-1.88-.91-2.63-1.61-.96-1.01-1.62-2.21-1.97-3.62-.35-1.4-.53-3.26-.53-5.59v-22.09h-6.05v-1.31h6.05v-9.6c1.36-.04,2.63-.16,3.81-.36,1.18-.2,2.28-.52,3.29-.95Z" fill="#fff"/><path d="M167.05,809.56v23.93c1.09-2.72,2.64-4.61,4.63-5.69,1.99-1.07,4.11-1.61,6.34-1.61,1.75,0,3.19.23,4.31.69,1.12.46,2.05,1.08,2.79,1.87.79.83,1.36,1.91,1.71,3.22.35,1.31.53,3.09.53,5.33v17.62c0,1.84.36,3.09,1.08,3.75.72.66,1.94.99,3.65.99v1.38c-.79-.04-1.97-.1-3.55-.16-1.58-.07-3.11-.1-4.6-.1s-3.04.03-4.5.1c-1.47.06-2.55.12-3.25.16v-1.38c1.49,0,2.54-.33,3.16-.99.61-.66.92-1.91.92-3.75v-19.46c0-1.27-.11-2.42-.33-3.45-.22-1.03-.69-1.86-1.41-2.5-.72-.63-1.79-.95-3.19-.95-1.58,0-2.99.45-4.24,1.35s-2.24,2.14-2.96,3.71c-.72,1.58-1.08,3.38-1.08,5.39v15.91c0,1.84.31,3.09.92,3.75.61.66,1.67.99,3.16.99v1.38c-.75-.04-1.83-.1-3.25-.16-1.42-.07-2.88-.1-4.37-.1s-3.1.03-4.7.1c-1.6.06-2.79.12-3.58.16v-1.38c1.71,0,2.93-.33,3.65-.99.72-.66,1.08-1.91,1.08-3.75v-37.47c0-1.97-.34-3.43-1.02-4.37-.68-.94-1.92-1.41-3.71-1.41v-1.38c1.4.13,2.76.2,4.08.2,1.45,0,2.83-.08,4.14-.23,1.32-.15,2.52-.38,3.62-.69Z" fill="#fff"/><path d="M211.23,826.19c2.94,0,5.54.62,7.82,1.84,2.28,1.23,4.1,3.15,5.46,5.79,1.36,2.63,2.04,6.07,2.04,10.32s-.68,7.68-2.04,10.29c-1.36,2.61-3.18,4.51-5.46,5.72-2.28,1.21-4.89,1.81-7.82,1.81s-5.5-.6-7.82-1.81-4.15-3.11-5.49-5.72-2-6.04-2-10.29.67-7.69,2-10.32c1.34-2.63,3.17-4.56,5.49-5.79s4.93-1.84,7.82-1.84ZM211.23,827.5c-2.28,0-4.14,1.3-5.59,3.91s-2.17,6.85-2.17,12.72.72,10.09,2.17,12.66c1.45,2.56,3.31,3.85,5.59,3.85s4.09-1.28,5.56-3.85c1.47-2.56,2.2-6.78,2.2-12.66s-.73-10.11-2.2-12.72c-1.47-2.61-3.32-3.91-5.56-3.91Z" fill="#fff"/><path d="M243.44,826.19c1.75,0,3.28.28,4.57.82,1.29.55,2.22,1.04,2.79,1.48,1.45,1.14,2.34.39,2.7-2.23h1.45c-.09,1.23-.15,2.71-.2,4.44-.04,1.73-.07,4.02-.07,6.87h-1.45c-.26-1.62-.71-3.2-1.35-4.73-.64-1.53-1.56-2.8-2.76-3.81-1.21-1.01-2.77-1.51-4.7-1.51-1.45,0-2.65.41-3.62,1.22-.96.81-1.45,2.01-1.45,3.58,0,1.31.39,2.45,1.18,3.42s1.81,1.86,3.06,2.7,2.6,1.73,4.04,2.7c1.62,1.1,3.08,2.18,4.37,3.25,1.29,1.07,2.32,2.27,3.09,3.58.77,1.32,1.15,2.85,1.15,4.6,0,2.02-.54,3.72-1.61,5.13-1.07,1.4-2.49,2.46-4.24,3.19-1.75.72-3.68,1.08-5.79,1.08-1.05,0-2.04-.1-2.96-.29-.92-.2-1.77-.45-2.56-.76-.48-.26-.95-.54-1.41-.82-.46-.29-.91-.56-1.35-.82-.44-.31-.83-.26-1.18.13-.35.39-.61,1.1-.79,2.1h-1.45c.09-1.4.15-3.11.2-5.13.04-2.02.07-4.69.07-8.02h1.45c.31,2.41.77,4.54,1.38,6.38.61,1.84,1.52,3.28,2.73,4.31,1.2,1.03,2.86,1.54,4.96,1.54.83,0,1.67-.19,2.5-.56.83-.37,1.52-.97,2.07-1.81.55-.83.82-1.95.82-3.35,0-1.93-.67-3.52-2-4.77-1.34-1.25-3.06-2.57-5.16-3.98-1.49-1.05-2.9-2.09-4.24-3.12-1.34-1.03-2.42-2.19-3.25-3.48-.83-1.29-1.25-2.84-1.25-4.63,0-1.97.47-3.59,1.41-4.87.94-1.27,2.2-2.22,3.78-2.86,1.58-.63,3.26-.95,5.06-.95Z" fill="#fff"/><path d="M277.23,826.19c3.86,0,6.88,1.16,9.07,3.48,2.19,2.32,3.29,6.01,3.29,11.04h-22.68l-.13-1.25h15.84c.04-2.15-.13-4.13-.53-5.95-.39-1.82-1.01-3.28-1.84-4.37-.83-1.1-1.93-1.64-3.29-1.64-1.88,0-3.52,1-4.9,2.99-1.38,1.99-2.22,5.18-2.53,9.56l.2.33c-.04.61-.09,1.28-.13,2-.04.72-.07,1.44-.07,2.14,0,3.03.46,5.57,1.38,7.63.92,2.06,2.12,3.61,3.62,4.63,1.49,1.03,3,1.54,4.54,1.54,1.18,0,2.33-.19,3.45-.56s2.18-1.01,3.19-1.91c1.01-.9,1.91-2.13,2.7-3.71l1.31.53c-.53,1.49-1.34,2.96-2.43,4.4-1.1,1.45-2.5,2.62-4.21,3.52s-3.7,1.35-5.98,1.35c-3.07,0-5.74-.69-8.02-2.07-2.28-1.38-4.03-3.36-5.26-5.95-1.23-2.59-1.84-5.65-1.84-9.21,0-3.9.63-7.23,1.91-9.99,1.27-2.76,3.06-4.88,5.36-6.34,2.3-1.47,4.96-2.2,7.99-2.2Z" fill="#fff"/><path d="M320.03,809.49v45.43c0,1.84.36,3.09,1.08,3.75.72.66,1.94.99,3.65.99v1.38c-.79-.04-1.96-.1-3.52-.16-1.56-.07-3.12-.1-4.7-.1s-3.17.03-4.77.1c-1.6.06-2.79.12-3.58.16v-1.38c1.71,0,2.92-.33,3.65-.99.72-.66,1.08-1.91,1.08-3.75v-37.54c0-1.97-.33-3.43-.99-4.37-.66-.94-1.91-1.41-3.75-1.41v-1.38c1.4.13,2.76.2,4.08.2,1.45,0,2.83-.08,4.14-.23,1.31-.15,2.52-.38,3.62-.69Z" fill="#fff"/><path d="M339.75,826.39v28.53c0,1.84.36,3.09,1.08,3.75.72.66,1.94.99,3.65.99v1.38c-.75-.04-1.9-.1-3.45-.16-1.56-.07-3.15-.1-4.77-.1s-3.17.03-4.77.1c-1.6.06-2.79.12-3.58.16v-1.38c1.71,0,2.92-.33,3.65-.99.72-.66,1.08-1.91,1.08-3.75v-20.64c0-1.97-.33-3.43-.99-4.37-.66-.94-1.91-1.41-3.75-1.41v-1.38c1.4.13,2.76.2,4.08.2,1.49,0,2.88-.08,4.17-.23,1.29-.15,2.49-.38,3.58-.69ZM335.81,810.54c1.36,0,2.5.43,3.42,1.28.92.85,1.38,1.92,1.38,3.19s-.46,2.33-1.38,3.19c-.92.85-2.06,1.28-3.42,1.28s-2.5-.43-3.42-1.28c-.92-.86-1.38-1.92-1.38-3.19s.46-2.33,1.38-3.19c.92-.86,2.06-1.28,3.42-1.28Z" fill="#fff"/><path d="M378.21,827.11v1.32c-.83.13-1.61.56-2.33,1.28-.72.72-1.39,1.96-2.01,3.71l-10.39,27.87h-2.17l-11.96-29.12c-.7-1.71-1.39-2.75-2.07-3.12-.68-.37-1.26-.56-1.74-.56v-1.38c1.05.09,2.14.17,3.25.23,1.12.07,2.36.1,3.71.1s2.79-.03,4.31-.1c1.51-.06,2.93-.14,4.24-.23v1.38c-1.05,0-1.98.07-2.79.2-.81.13-1.34.52-1.58,1.15-.24.64-.1,1.72.43,3.25l8.09,20.38-.53.53,6.77-17.95c.66-1.75.92-3.17.79-4.24-.13-1.07-.59-1.88-1.38-2.43-.79-.55-1.93-.87-3.42-.95v-1.32c.75.04,1.43.08,2.07.1.63.02,1.25.04,1.84.07.59.02,1.22.03,1.87.03.96,0,1.87-.02,2.73-.06s1.61-.09,2.27-.13Z" fill="#fff"/><path d="M391.95,826.39v28.53c0,1.84.36,3.09,1.08,3.75.72.66,1.94.99,3.65.99v1.38c-.75-.04-1.9-.1-3.45-.16-1.56-.07-3.15-.1-4.77-.1s-3.17.03-4.77.1c-1.6.06-2.79.12-3.58.16v-1.38c1.71,0,2.92-.33,3.65-.99.72-.66,1.08-1.91,1.08-3.75v-20.64c0-1.97-.33-3.43-.99-4.37-.66-.94-1.91-1.41-3.75-1.41v-1.38c1.4.13,2.76.2,4.08.2,1.49,0,2.88-.08,4.17-.23,1.29-.15,2.49-.38,3.58-.69ZM388.01,810.54c1.36,0,2.5.43,3.42,1.28.92.85,1.38,1.92,1.38,3.19s-.46,2.33-1.38,3.19c-.92.85-2.06,1.28-3.42,1.28s-2.5-.43-3.42-1.28c-.92-.86-1.38-1.92-1.38-3.19s.46-2.33,1.38-3.19c.92-.86,2.06-1.28,3.42-1.28Z" fill="#fff"/><path d="M422.72,826.19c1.75,0,3.19.23,4.31.69,1.12.46,2.05,1.08,2.79,1.87.79.83,1.35,1.91,1.68,3.22.33,1.31.49,3.09.49,5.33v17.62c0,1.84.36,3.09,1.08,3.75.72.66,1.94.99,3.65.99v1.38c-.75-.04-1.91-.1-3.48-.16-1.58-.07-3.13-.1-4.67-.1s-2.97.03-4.44.1c-1.47.06-2.58.12-3.32.16v-1.38c1.49,0,2.54-.33,3.16-.99.61-.66.92-1.91.92-3.75v-19.46c0-1.27-.11-2.42-.33-3.45-.22-1.03-.68-1.86-1.38-2.5-.7-.63-1.75-.95-3.16-.95-1.62,0-3.06.46-4.31,1.38s-2.24,2.18-2.96,3.78c-.72,1.6-1.08,3.39-1.08,5.36v15.84c0,1.84.32,3.09.95,3.75.63.66,1.68.99,3.12.99v1.38c-.7-.04-1.76-.1-3.19-.16-1.42-.07-2.9-.1-4.44-.1s-3.05.03-4.67.1c-1.62.06-2.83.12-3.62.16v-1.38c1.71,0,2.92-.33,3.65-.99.72-.66,1.08-1.91,1.08-3.75v-20.64c0-1.97-.33-3.43-.99-4.37-.66-.94-1.91-1.41-3.75-1.41v-1.38c1.4.13,2.76.2,4.08.2,1.49,0,2.88-.08,4.17-.23,1.29-.15,2.49-.38,3.58-.69v7.17c1.14-2.72,2.71-4.62,4.7-5.72s4.11-1.64,6.34-1.64Z" fill="#fff"/><path d="M451.25,873.39c-2.46,0-4.72-.24-6.8-.72-2.08-.48-3.75-1.21-5-2.2s-1.87-2.25-1.87-3.78c0-1.45.61-2.72,1.84-3.81,1.23-1.1,2.96-1.93,5.19-2.5l.46,1.05c-.92.39-1.63,1.03-2.14,1.91-.5.88-.76,1.84-.76,2.89,0,1.93.9,3.42,2.7,4.47,1.8,1.05,4.16,1.58,7.1,1.58,1.97,0,3.85-.25,5.62-.76s3.22-1.33,4.34-2.46c1.12-1.14,1.68-2.61,1.68-4.4,0-1.4-.5-2.57-1.51-3.52-1.01-.94-3-1.41-5.98-1.41h-4.6c-1.54,0-2.96-.13-4.27-.39-1.31-.26-2.38-.78-3.19-1.54-.81-.77-1.22-1.85-1.22-3.26,0-1.58.66-3.07,1.97-4.47,1.32-1.4,3.53-2.78,6.64-4.14l.79.59c-1.27.7-2.4,1.41-3.39,2.14-.99.72-1.48,1.61-1.48,2.66,0,1.4,1.01,2.1,3.02,2.1h7.82c2.06,0,3.92.28,5.59.82,1.67.55,3,1.41,4.01,2.6,1.01,1.18,1.51,2.74,1.51,4.67,0,2.06-.67,4-2,5.82s-3.34,3.29-6.02,4.4c-2.67,1.12-6.03,1.68-10.06,1.68ZM451.64,847.03c-2.24,0-4.27-.36-6.11-1.08s-3.29-1.85-4.34-3.39c-1.05-1.53-1.58-3.51-1.58-5.92s.53-4.39,1.58-5.95c1.05-1.55,2.5-2.7,4.34-3.42,1.84-.72,3.88-1.09,6.11-1.09s4.38.36,6.18,1.09c1.8.72,3.22,1.86,4.27,3.42,1.05,1.56,1.58,3.54,1.58,5.95s-.53,4.38-1.58,5.92c-1.05,1.54-2.48,2.66-4.27,3.39-1.8.72-3.86,1.08-6.18,1.08ZM451.64,845.85c1.53,0,2.72-.66,3.55-1.97.83-1.32,1.25-3.72,1.25-7.23s-.42-5.93-1.25-7.26c-.83-1.34-2.02-2.01-3.55-2.01-1.45,0-2.61.67-3.48,2.01-.88,1.34-1.32,3.76-1.32,7.26s.44,5.92,1.32,7.23c.88,1.31,2.04,1.97,3.48,1.97ZM461.37,831.71l-1.18-.46c.61-1.53,1.67-2.87,3.16-4.01s3.05-1.71,4.67-1.71c1.23,0,2.2.34,2.93,1.02.72.68,1.08,1.63,1.08,2.86,0,1.36-.36,2.32-1.08,2.89-.72.57-1.48.85-2.27.85-.7,0-1.35-.24-1.94-.72s-.93-1.24-1.02-2.27c-.09-1.03.24-2.36.99-3.98l.72.26c-1.75.7-3.04,1.44-3.85,2.2-.81.77-1.54,1.79-2.2,3.06Z" fill="#fff"/><path d="M502,827.11v1.38c-1.05,0-1.98.08-2.79.23-.81.15-1.34.56-1.58,1.22-.24.66-.08,1.82.49,3.48l6.64,19.59-.59.26,9.01-26.36,1.31.59-11.37,33.79h-2.17l-10.65-29.12c-.7-1.75-1.39-2.8-2.07-3.15-.68-.35-1.26-.53-1.74-.53v-1.38c1.05.13,2.14.23,3.25.3,1.12.07,2.36.1,3.71.1s2.79-.04,4.31-.13c1.51-.09,2.92-.17,4.24-.26ZM537.5,827.11v1.32c-.83.13-1.62.55-2.37,1.25-.75.7-1.4,1.95-1.97,3.75l-9.27,27.87h-2.17l-10.19-26.36,1.64-8.02c.44.04.87.06,1.28.03.42-.02.84-.03,1.28-.03l9.86,26.96-.59.07,5.79-17.88c.57-1.8.79-3.22.66-4.27-.13-1.05-.59-1.84-1.38-2.37-.79-.53-1.97-.85-3.55-.98v-1.32c.79.04,1.5.08,2.14.1.63.02,1.27.04,1.91.07.63.02,1.28.03,1.94.03.96,0,1.87-.02,2.73-.06.85-.04,1.61-.09,2.27-.13Z" fill="#fff"/><path d="M551.24,826.39v28.53c0,1.84.36,3.09,1.08,3.75.72.66,1.94.99,3.65.99v1.38c-.75-.04-1.9-.1-3.45-.16-1.56-.07-3.15-.1-4.77-.1s-3.17.03-4.77.1c-1.6.06-2.79.12-3.58.16v-1.38c1.71,0,2.92-.33,3.65-.99.72-.66,1.08-1.91,1.08-3.75v-20.64c0-1.97-.33-3.43-.99-4.37-.66-.94-1.91-1.41-3.75-1.41v-1.38c1.4.13,2.76.2,4.08.2,1.49,0,2.88-.08,4.17-.23,1.29-.15,2.49-.38,3.58-.69ZM547.3,810.54c1.36,0,2.5.43,3.42,1.28.92.85,1.38,1.92,1.38,3.19s-.46,2.33-1.38,3.19c-.92.85-2.06,1.28-3.42,1.28s-2.5-.43-3.42-1.28c-.92-.86-1.38-1.92-1.38-3.19s.46-2.33,1.38-3.19c.92-.86,2.06-1.28,3.42-1.28Z" fill="#fff"/><path d="M570.63,816.26v10.91h9.07v1.31h-9.07v25.84c0,1.8.33,3.07.99,3.81s1.6,1.12,2.83,1.12c1.14,0,2.16-.46,3.06-1.38s1.68-2.47,2.33-4.67l1.25.46c-.53,2.32-1.46,4.29-2.79,5.88-1.34,1.6-3.3,2.4-5.88,2.4-1.49,0-2.74-.19-3.75-.56-1.01-.37-1.88-.91-2.63-1.61-.96-1.01-1.62-2.21-1.97-3.62-.35-1.4-.53-3.26-.53-5.59v-22.09h-6.05v-1.31h6.05v-9.6c1.36-.04,2.63-.16,3.81-.36,1.18-.2,2.28-.52,3.29-.95Z" fill="#fff"/><path d="M593.71,809.56v23.93c1.09-2.72,2.64-4.61,4.63-5.69,1.99-1.07,4.11-1.61,6.34-1.61,1.75,0,3.19.23,4.31.69,1.12.46,2.05,1.08,2.79,1.87.79.83,1.36,1.91,1.71,3.22.35,1.31.53,3.09.53,5.33v17.62c0,1.84.36,3.09,1.08,3.75.72.66,1.94.99,3.65.99v1.38c-.79-.04-1.97-.1-3.55-.16-1.58-.07-3.11-.1-4.6-.1s-3.04.03-4.5.1c-1.47.06-2.55.12-3.25.16v-1.38c1.49,0,2.54-.33,3.16-.99.61-.66.92-1.91.92-3.75v-19.46c0-1.27-.11-2.42-.33-3.45-.22-1.03-.69-1.86-1.41-2.5-.72-.63-1.79-.95-3.19-.95-1.58,0-2.99.45-4.24,1.35s-2.24,2.14-2.96,3.71c-.72,1.58-1.08,3.38-1.08,5.39v15.91c0,1.84.31,3.09.92,3.75.61.66,1.67.99,3.16.99v1.38c-.75-.04-1.83-.1-3.25-.16-1.42-.07-2.88-.1-4.37-.1s-3.1.03-4.7.1c-1.6.06-2.79.12-3.58.16v-1.38c1.71,0,2.93-.33,3.65-.99.72-.66,1.08-1.91,1.08-3.75v-37.47c0-1.97-.34-3.43-1.02-4.37-.68-.94-1.92-1.41-3.71-1.41v-1.38c1.4.13,2.76.2,4.08.2,1.45,0,2.83-.08,4.14-.23,1.32-.15,2.52-.38,3.62-.69Z" fill="#fff"/><path d="M638.28,814.49c1.01.04,2.31.09,3.91.13,1.6.04,3.19.07,4.77.07,2.1,0,4.11-.02,6.01-.07,1.91-.04,3.25-.07,4.04-.07,4.91,0,8.58.96,11.01,2.89,2.43,1.93,3.65,4.41,3.65,7.43,0,1.54-.36,3.06-1.08,4.57-.72,1.51-1.9,2.87-3.52,4.08-1.62,1.21-3.77,2.16-6.44,2.86v.13c3.68.39,6.57,1.18,8.68,2.37,2.1,1.18,3.59,2.6,4.47,4.24.88,1.64,1.31,3.36,1.31,5.16,0,2.59-.66,4.83-1.97,6.74-1.32,1.91-3.21,3.38-5.69,4.44-2.48,1.05-5.45,1.58-8.91,1.58-.96,0-2.42-.03-4.37-.1-1.95-.06-4.31-.1-7.07-.1-1.67,0-3.3.01-4.9.03-1.6.02-2.9.08-3.91.16v-1.31c1.49-.09,2.61-.26,3.35-.53.74-.26,1.24-.79,1.48-1.58.24-.79.36-1.97.36-3.55v-32.61c0-1.62-.13-2.82-.39-3.58-.26-.77-.77-1.29-1.51-1.58-.75-.28-1.84-.45-3.29-.49v-1.31ZM655.63,815.8c-1.93,0-3.18.37-3.75,1.12-.57.75-.86,2.26-.86,4.54v32.61c0,1.54.13,2.7.39,3.48.26.79.73,1.31,1.41,1.58.68.26,1.68.39,2.99.39,3.94,0,6.8-1,8.58-2.99,1.77-1.99,2.66-4.83,2.66-8.51,0-3.38-.89-5.98-2.66-7.82-1.78-1.84-4.7-2.76-8.78-2.76h-6.38v-1.12h5.65c2.41,0,4.27-.49,5.59-1.48,1.32-.98,2.21-2.3,2.7-3.94.48-1.64.72-3.41.72-5.29,0-3.24-.65-5.69-1.94-7.33-1.29-1.64-3.41-2.46-6.34-2.46Z" fill="#fff"/><path d="M695.93,826.19c2.94,0,5.54.62,7.82,1.84,2.28,1.23,4.1,3.15,5.46,5.79,1.36,2.63,2.04,6.07,2.04,10.32s-.68,7.68-2.04,10.29c-1.36,2.61-3.18,4.51-5.46,5.72-2.28,1.21-4.89,1.81-7.82,1.81s-5.5-.6-7.82-1.81-4.15-3.11-5.49-5.72-2-6.04-2-10.29.67-7.69,2-10.32c1.34-2.63,3.17-4.56,5.49-5.79s4.93-1.84,7.82-1.84ZM695.93,827.5c-2.28,0-4.14,1.3-5.59,3.91s-2.17,6.85-2.17,12.72.72,10.09,2.17,12.66c1.45,2.56,3.31,3.85,5.59,3.85s4.09-1.28,5.56-3.85c1.47-2.56,2.2-6.78,2.2-12.66s-.73-10.11-2.2-12.72c-1.47-2.61-3.32-3.91-5.56-3.91Z" fill="#fff"/><path d="M737.09,826.19c1.27,0,2.36.26,3.25.79.9.53,1.58,1.2,2.04,2.01.46.81.69,1.72.69,2.73,0,1.27-.38,2.36-1.15,3.25s-1.79,1.35-3.06,1.35c-1.1,0-2.03-.33-2.79-.99-.77-.66-1.15-1.55-1.15-2.7,0-.96.25-1.79.76-2.46.5-.68,1.08-1.22,1.74-1.61-.44-.35-.96-.5-1.58-.46-1.18.04-2.28.43-3.29,1.15-1.01.72-1.86,1.64-2.56,2.76-.7,1.12-1.25,2.31-1.64,3.58-.39,1.27-.59,2.46-.59,3.55v15.12c0,2.15.59,3.58,1.78,4.31,1.18.72,2.83,1.08,4.93,1.08v1.38c-1.01-.04-2.44-.1-4.31-.16-1.86-.07-3.82-.1-5.88-.1-1.58,0-3.16.03-4.73.1-1.58.06-2.78.12-3.62.16v-1.38c1.71,0,2.92-.33,3.65-.99.72-.66,1.08-1.91,1.08-3.75v-20.64c0-1.97-.33-3.43-.99-4.37-.66-.94-1.91-1.41-3.75-1.41v-1.38c1.4.13,2.76.2,4.08.2,1.49,0,2.88-.08,4.17-.23,1.29-.15,2.49-.38,3.58-.69v7.56c.53-1.27,1.23-2.5,2.1-3.68s1.93-2.16,3.16-2.93c1.23-.77,2.58-1.15,4.08-1.15Z" fill="#fff"/><path d="M760.42,826.19c1.93,0,3.69.42,5.29,1.25s2.73,2.23,3.39,4.21l-.79.72c-.61-1.58-1.51-2.73-2.7-3.45-1.18-.72-2.52-1.08-4.01-1.08-2.5,0-4.54,1.33-6.11,3.98-1.58,2.65-2.34,6.74-2.3,12.26,0,3.64.31,6.61.92,8.91.61,2.3,1.52,4,2.73,5.1,1.21,1.1,2.66,1.64,4.37,1.64s3.25-.72,4.63-2.17c1.38-1.45,2.2-3.53,2.46-6.25l.59,1.38c-.44,2.98-1.49,5.27-3.16,6.87-1.67,1.6-3.9,2.4-6.71,2.4s-5.03-.65-7.07-1.94-3.61-3.26-4.7-5.92-1.64-5.99-1.64-10.03.67-7.31,2.01-9.96c1.34-2.65,3.12-4.63,5.36-5.95s4.71-1.97,7.43-1.97ZM775.22,809.49v44.38c0,1.97.34,3.43,1.02,4.37.68.94,1.92,1.41,3.71,1.41v1.38c-1.36-.13-2.72-.2-4.08-.2-1.49,0-2.88.06-4.17.2-1.29.13-2.49.37-3.58.72v-44.38c0-1.97-.34-3.43-1.02-4.37-.68-.94-1.92-1.41-3.71-1.41v-1.38c1.4.13,2.76.2,4.08.2,1.45,0,2.83-.08,4.14-.23,1.32-.15,2.52-.38,3.62-.69Z" fill="#fff"/><path d="M799.34,826.19c3.86,0,6.88,1.16,9.07,3.48,2.19,2.32,3.29,6.01,3.29,11.04h-22.68l-.13-1.25h15.84c.04-2.15-.13-4.13-.53-5.95-.39-1.82-1.01-3.28-1.84-4.37-.83-1.1-1.93-1.64-3.29-1.64-1.88,0-3.52,1-4.9,2.99-1.38,1.99-2.22,5.18-2.53,9.56l.2.33c-.04.61-.09,1.28-.13,2-.04.72-.07,1.44-.07,2.14,0,3.03.46,5.57,1.38,7.63.92,2.06,2.12,3.61,3.62,4.63,1.49,1.03,3,1.54,4.54,1.54,1.18,0,2.33-.19,3.45-.56s2.18-1.01,3.19-1.91c1.01-.9,1.91-2.13,2.7-3.71l1.31.53c-.52,1.49-1.34,2.96-2.43,4.4-1.1,1.45-2.5,2.62-4.21,3.52s-3.7,1.35-5.98,1.35c-3.07,0-5.74-.69-8.02-2.07-2.28-1.38-4.03-3.36-5.26-5.95-1.23-2.59-1.84-5.65-1.84-9.21,0-3.9.63-7.23,1.91-9.99,1.27-2.76,3.06-4.88,5.36-6.34,2.3-1.47,4.96-2.2,7.99-2.2Z" fill="#fff"/><path d="M837.27,826.19c1.27,0,2.36.26,3.25.79.9.53,1.58,1.2,2.04,2.01.46.81.69,1.72.69,2.73,0,1.27-.38,2.36-1.15,3.25s-1.79,1.35-3.06,1.35c-1.1,0-2.03-.33-2.79-.99-.77-.66-1.15-1.55-1.15-2.7,0-.96.25-1.79.76-2.46.5-.68,1.08-1.22,1.74-1.61-.44-.35-.96-.5-1.58-.46-1.18.04-2.28.43-3.29,1.15-1.01.72-1.86,1.64-2.56,2.76-.7,1.12-1.25,2.31-1.64,3.58-.39,1.27-.59,2.46-.59,3.55v15.12c0,2.15.59,3.58,1.78,4.31,1.18.72,2.83,1.08,4.93,1.08v1.38c-1.01-.04-2.44-.1-4.31-.16-1.86-.07-3.82-.1-5.88-.1-1.58,0-3.16.03-4.73.1-1.58.06-2.78.12-3.62.16v-1.38c1.71,0,2.92-.33,3.65-.99.72-.66,1.08-1.91,1.08-3.75v-20.64c0-1.97-.33-3.43-.99-4.37-.66-.94-1.91-1.41-3.75-1.41v-1.38c1.4.13,2.76.2,4.08.2,1.49,0,2.88-.08,4.17-.23,1.29-.15,2.49-.38,3.58-.69v7.56c.53-1.27,1.23-2.5,2.1-3.68s1.93-2.16,3.16-2.93c1.23-.77,2.58-1.15,4.08-1.15Z" fill="#fff"/><path d="M855.81,809.49v45.43c0,1.84.36,3.09,1.08,3.75.72.66,1.94.99,3.65.99v1.38c-.79-.04-1.96-.1-3.52-.16-1.56-.07-3.12-.1-4.7-.1s-3.17.03-4.77.1c-1.6.06-2.79.12-3.58.16v-1.38c1.71,0,2.92-.33,3.65-.99.72-.66,1.08-1.91,1.08-3.75v-37.54c0-1.97-.33-3.43-.99-4.37-.66-.94-1.91-1.41-3.75-1.41v-1.38c1.4.13,2.76.2,4.08.2,1.45,0,2.83-.08,4.14-.23,1.31-.15,2.52-.38,3.62-.69Z" fill="#fff"/><path d="M875.54,826.39v28.53c0,1.84.36,3.09,1.08,3.75.72.66,1.94.99,3.65.99v1.38c-.75-.04-1.9-.1-3.45-.16-1.56-.07-3.15-.1-4.77-.1s-3.17.03-4.77.1c-1.6.06-2.79.12-3.58.16v-1.38c1.71,0,2.92-.33,3.65-.99.72-.66,1.08-1.91,1.08-3.75v-20.64c0-1.97-.33-3.43-.99-4.37-.66-.94-1.91-1.41-3.75-1.41v-1.38c1.4.13,2.76.2,4.08.2,1.49,0,2.88-.08,4.17-.23,1.29-.15,2.49-.38,3.58-.69ZM871.59,810.54c1.36,0,2.5.43,3.42,1.28.92.85,1.38,1.92,1.38,3.19s-.46,2.33-1.38,3.19c-.92.85-2.06,1.28-3.42,1.28s-2.5-.43-3.42-1.28c-.92-.86-1.38-1.92-1.38-3.19s.46-2.33,1.38-3.19c.92-.86,2.06-1.28,3.42-1.28Z" fill="#fff"/><path d="M906.3,826.19c1.75,0,3.19.23,4.31.69,1.12.46,2.05,1.08,2.79,1.87.79.83,1.35,1.91,1.68,3.22.33,1.31.49,3.09.49,5.33v17.62c0,1.84.36,3.09,1.08,3.75.72.66,1.94.99,3.65.99v1.38c-.75-.04-1.91-.1-3.48-.16-1.58-.07-3.13-.1-4.67-.1s-2.97.03-4.44.1c-1.47.06-2.58.12-3.32.16v-1.38c1.49,0,2.54-.33,3.16-.99.61-.66.92-1.91.92-3.75v-19.46c0-1.27-.11-2.42-.33-3.45-.22-1.03-.68-1.86-1.38-2.5-.7-.63-1.75-.95-3.16-.95-1.62,0-3.06.46-4.31,1.38s-2.24,2.18-2.96,3.78c-.72,1.6-1.08,3.39-1.08,5.36v15.84c0,1.84.32,3.09.95,3.75.63.66,1.68.99,3.12.99v1.38c-.7-.04-1.76-.1-3.19-.16-1.42-.07-2.9-.1-4.44-.1s-3.05.03-4.67.1c-1.62.06-2.83.12-3.62.16v-1.38c1.71,0,2.92-.33,3.65-.99.72-.66,1.08-1.91,1.08-3.75v-20.64c0-1.97-.33-3.43-.99-4.37-.66-.94-1.91-1.41-3.75-1.41v-1.38c1.4.13,2.76.2,4.08.2,1.49,0,2.88-.08,4.17-.23,1.29-.15,2.49-.38,3.58-.69v7.17c1.14-2.72,2.71-4.62,4.7-5.72s4.11-1.64,6.34-1.64Z" fill="#fff"/><path d="M939.37,826.19c3.86,0,6.88,1.16,9.07,3.48,2.19,2.32,3.29,6.01,3.29,11.04h-22.68l-.13-1.25h15.84c.04-2.15-.13-4.13-.53-5.95-.39-1.82-1.01-3.28-1.84-4.37-.83-1.1-1.93-1.64-3.29-1.64-1.88,0-3.52,1-4.9,2.99-1.38,1.99-2.22,5.18-2.53,9.56l.2.33c-.04.61-.09,1.28-.13,2-.04.72-.07,1.44-.07,2.14,0,3.03.46,5.57,1.38,7.63.92,2.06,2.12,3.61,3.62,4.63,1.49,1.03,3,1.54,4.54,1.54,1.18,0,2.33-.19,3.45-.56s2.18-1.01,3.19-1.91c1.01-.9,1.91-2.13,2.7-3.71l1.31.53c-.53,1.49-1.34,2.96-2.43,4.4-1.1,1.45-2.5,2.62-4.21,3.52s-3.7,1.35-5.98,1.35c-3.07,0-5.74-.69-8.02-2.07-2.28-1.38-4.03-3.36-5.26-5.95-1.23-2.59-1.84-5.65-1.84-9.21,0-3.9.63-7.23,1.91-9.99,1.27-2.76,3.06-4.88,5.36-6.34,2.3-1.47,4.96-2.2,7.99-2.2Z" fill="#fff"/><path d="M973.09,814.49c1.01.04,2.31.09,3.91.13,1.6.04,3.19.07,4.77.07,2.1,0,4.11-.02,6.01-.07,1.91-.04,3.25-.07,4.04-.07,5.57,0,9.73,1.21,12.49,3.62s4.14,5.52,4.14,9.33c0,1.58-.27,3.23-.82,4.96-.55,1.73-1.5,3.33-2.86,4.8s-3.2,2.66-5.52,3.58-5.28,1.38-8.88,1.38h-6.44v-1.31h5.79c2.94,0,5.18-.59,6.74-1.78s2.61-2.74,3.16-4.67c.55-1.93.82-4.01.82-6.24,0-4.16-.75-7.28-2.24-9.34s-4.08-3.09-7.76-3.09c-1.88,0-3.12.37-3.71,1.12-.59.75-.89,2.26-.89,4.54v32.48c0,1.62.17,2.84.53,3.65.35.81,1.01,1.35,1.97,1.61.96.26,2.39.42,4.27.46v1.38c-1.18-.09-2.72-.14-4.6-.16-1.88-.02-3.84-.03-5.85-.03-1.75,0-3.43.01-5.03.03-1.6.02-2.95.08-4.04.16v-1.31c1.49-.09,2.61-.26,3.35-.53.74-.26,1.24-.79,1.48-1.58.24-.79.36-1.97.36-3.55v-32.61c0-1.62-.12-2.82-.36-3.58-.24-.77-.75-1.29-1.51-1.58-.77-.28-1.87-.45-3.32-.49v-1.31Z" fill="#fff"/><path d="M1027.46,826.19c3.86,0,6.88,1.16,9.07,3.48,2.19,2.32,3.29,6.01,3.29,11.04h-22.68l-.13-1.25h15.84c.04-2.15-.13-4.13-.53-5.95-.39-1.82-1.01-3.28-1.84-4.37-.83-1.1-1.93-1.64-3.29-1.64-1.88,0-3.52,1-4.9,2.99-1.38,1.99-2.22,5.18-2.53,9.56l.2.33c-.04.61-.09,1.28-.13,2-.04.72-.07,1.44-.07,2.14,0,3.03.46,5.57,1.38,7.63.92,2.06,2.12,3.61,3.62,4.63,1.49,1.03,3,1.54,4.54,1.54,1.18,0,2.33-.19,3.45-.56s2.18-1.01,3.19-1.91c1.01-.9,1.91-2.13,2.7-3.71l1.31.53c-.53,1.49-1.34,2.96-2.43,4.4-1.1,1.45-2.5,2.62-4.21,3.52s-3.7,1.35-5.98,1.35c-3.07,0-5.74-.69-8.02-2.07-2.28-1.38-4.03-3.36-5.26-5.95-1.23-2.59-1.84-5.65-1.84-9.21,0-3.9.63-7.23,1.91-9.99,1.27-2.76,3.06-4.88,5.36-6.34,2.3-1.47,4.96-2.2,7.99-2.2Z" fill="#fff"/><path d="M1065.39,826.19c1.27,0,2.36.26,3.25.79.9.53,1.58,1.2,2.04,2.01.46.81.69,1.72.69,2.73,0,1.27-.38,2.36-1.15,3.25s-1.79,1.35-3.06,1.35c-1.1,0-2.03-.33-2.79-.99-.77-.66-1.15-1.55-1.15-2.7,0-.96.25-1.79.76-2.46.5-.68,1.08-1.22,1.74-1.61-.44-.35-.96-.5-1.58-.46-1.18.04-2.28.43-3.29,1.15-1.01.72-1.86,1.64-2.56,2.76-.7,1.12-1.25,2.31-1.64,3.58-.39,1.27-.59,2.46-.59,3.55v15.12c0,2.15.59,3.58,1.78,4.31,1.18.72,2.83,1.08,4.93,1.08v1.38c-1.01-.04-2.44-.1-4.31-.16-1.86-.07-3.82-.1-5.88-.1-1.58,0-3.16.03-4.73.1-1.58.06-2.78.12-3.62.16v-1.38c1.71,0,2.92-.33,3.65-.99.72-.66,1.08-1.91,1.08-3.75v-20.64c0-1.97-.33-3.43-.99-4.37-.66-.94-1.91-1.41-3.75-1.41v-1.38c1.4.13,2.76.2,4.08.2,1.49,0,2.88-.08,4.17-.23,1.29-.15,2.49-.38,3.58-.69v7.56c.53-1.27,1.23-2.5,2.1-3.68s1.93-2.16,3.16-2.93c1.23-.77,2.58-1.15,4.08-1.15Z" fill="#fff"/><path d="M1086.17,826.19c1.75,0,3.28.28,4.57.82,1.29.55,2.22,1.04,2.79,1.48,1.45,1.14,2.34.39,2.7-2.23h1.45c-.09,1.23-.15,2.71-.2,4.44-.04,1.73-.07,4.02-.07,6.87h-1.45c-.26-1.62-.71-3.2-1.35-4.73-.64-1.53-1.56-2.8-2.76-3.81-1.21-1.01-2.77-1.51-4.7-1.51-1.45,0-2.65.41-3.62,1.22-.96.81-1.45,2.01-1.45,3.58,0,1.31.39,2.45,1.18,3.42s1.81,1.86,3.06,2.7,2.6,1.73,4.04,2.7c1.62,1.1,3.08,2.18,4.37,3.25,1.29,1.07,2.32,2.27,3.09,3.58.77,1.32,1.15,2.85,1.15,4.6,0,2.02-.54,3.72-1.61,5.13-1.07,1.4-2.49,2.46-4.24,3.19-1.75.72-3.68,1.08-5.79,1.08-1.05,0-2.04-.1-2.96-.29-.92-.2-1.77-.45-2.56-.76-.48-.26-.95-.54-1.41-.82-.46-.29-.91-.56-1.35-.82-.44-.31-.83-.26-1.18.13-.35.39-.61,1.1-.79,2.1h-1.45c.09-1.4.15-3.11.2-5.13.04-2.02.07-4.69.07-8.02h1.45c.31,2.41.77,4.54,1.38,6.38.61,1.84,1.52,3.28,2.73,4.31,1.2,1.03,2.86,1.54,4.96,1.54.83,0,1.67-.19,2.5-.56.83-.37,1.52-.97,2.07-1.81.55-.83.82-1.95.82-3.35,0-1.93-.67-3.52-2-4.77-1.34-1.25-3.06-2.57-5.16-3.98-1.49-1.05-2.9-2.09-4.24-3.12-1.34-1.03-2.42-2.19-3.25-3.48-.83-1.29-1.25-2.84-1.25-4.63,0-1.97.47-3.59,1.41-4.87.94-1.27,2.2-2.22,3.78-2.86,1.58-.63,3.26-.95,5.06-.95Z" fill="#fff"/><path d="M1120.09,826.19c2.94,0,5.54.62,7.82,1.84,2.28,1.23,4.1,3.15,5.46,5.79,1.36,2.63,2.04,6.07,2.04,10.32s-.68,7.68-2.04,10.29c-1.36,2.61-3.18,4.51-5.46,5.72-2.28,1.21-4.89,1.81-7.82,1.81s-5.5-.6-7.82-1.81-4.15-3.11-5.49-5.72-2-6.04-2-10.29.67-7.69,2-10.32c1.34-2.63,3.17-4.56,5.49-5.79s4.93-1.84,7.82-1.84ZM1120.09,827.5c-2.28,0-4.14,1.3-5.59,3.91s-2.17,6.85-2.17,12.72.72,10.09,2.17,12.66c1.45,2.56,3.31,3.85,5.59,3.85s4.09-1.28,5.56-3.85c1.47-2.56,2.2-6.78,2.2-12.66s-.73-10.11-2.2-12.72c-1.47-2.61-3.32-3.91-5.56-3.91Z" fill="#fff"/><path d="M1162.95,826.19c1.75,0,3.19.23,4.31.69,1.12.46,2.05,1.08,2.79,1.87.79.83,1.35,1.91,1.68,3.22.33,1.31.49,3.09.49,5.33v17.62c0,1.84.36,3.09,1.08,3.75.72.66,1.94.99,3.65.99v1.38c-.75-.04-1.91-.1-3.48-.16-1.58-.07-3.13-.1-4.67-.1s-2.97.03-4.44.1c-1.47.06-2.58.12-3.32.16v-1.38c1.49,0,2.54-.33,3.16-.99.61-.66.92-1.91.92-3.75v-19.46c0-1.27-.11-2.42-.33-3.45-.22-1.03-.68-1.86-1.38-2.5-.7-.63-1.75-.95-3.16-.95-1.62,0-3.06.46-4.31,1.38s-2.24,2.18-2.96,3.78c-.72,1.6-1.08,3.39-1.08,5.36v15.84c0,1.84.32,3.09.95,3.75.63.66,1.68.99,3.12.99v1.38c-.7-.04-1.76-.1-3.19-.16-1.42-.07-2.9-.1-4.44-.1s-3.05.03-4.67.1c-1.62.06-2.83.12-3.62.16v-1.38c1.71,0,2.92-.33,3.65-.99.72-.66,1.08-1.91,1.08-3.75v-20.64c0-1.97-.33-3.43-.99-4.37-.66-.94-1.91-1.41-3.75-1.41v-1.38c1.4.13,2.76.2,4.08.2,1.49,0,2.88-.08,4.17-.23,1.29-.15,2.49-.38,3.58-.69v7.17c1.14-2.72,2.71-4.62,4.7-5.72s4.11-1.64,6.34-1.64Z" fill="#fff"/><path d="M1188.98,861.49c-1.84,0-3.42-.35-4.73-1.05-1.32-.7-2.3-1.67-2.96-2.89s-.99-2.63-.99-4.21c0-1.93.44-3.5,1.32-4.7.88-1.21,2-2.18,3.39-2.93,1.38-.74,2.85-1.37,4.4-1.87s3.02-.99,4.41-1.45c1.38-.46,2.52-1,3.42-1.61s1.35-1.42,1.35-2.43v-4.47c0-1.58-.25-2.84-.76-3.78-.5-.94-1.18-1.61-2.04-2.01s-1.87-.59-3.06-.59c-1.01,0-2.08.14-3.22.43s-2.04.84-2.7,1.68c.96.26,1.76.78,2.4,1.54.63.77.95,1.72.95,2.86,0,1.23-.41,2.19-1.22,2.89-.81.7-1.83,1.05-3.06,1.05-1.36,0-2.37-.43-3.02-1.28-.66-.86-.99-1.85-.99-2.99s.3-2.15.89-2.89c.59-.74,1.37-1.45,2.33-2.1,1.05-.7,2.4-1.29,4.04-1.78,1.64-.48,3.47-.72,5.49-.72,1.88,0,3.52.21,4.9.62,1.38.42,2.53,1.08,3.45,2.01,1.09,1.01,1.82,2.27,2.17,3.78.35,1.51.53,3.34.53,5.49v18.14c0,1.1.14,1.87.43,2.33.29.46.76.69,1.41.69.44,0,.86-.11,1.28-.33.42-.22.91-.55,1.48-.99l.66,1.12c-.92.75-1.85,1.34-2.79,1.78s-2.14.66-3.58.66-2.54-.22-3.42-.66c-.88-.44-1.52-1.07-1.94-1.91-.42-.83-.62-1.86-.62-3.09-1.14,1.84-2.5,3.24-4.08,4.21-1.58.96-3.42,1.45-5.52,1.45ZM1192.14,858.34c1.23,0,2.38-.35,3.45-1.05,1.07-.7,2.07-1.75,2.99-3.16v-13.08c-.48.7-1.18,1.3-2.1,1.81s-1.91,1.02-2.96,1.54-2.05,1.13-2.99,1.81c-.94.68-1.72,1.54-2.33,2.6-.61,1.05-.92,2.39-.92,4.01,0,1.71.44,3.06,1.32,4.04.88.99,2.06,1.48,3.55,1.48Z" fill="#fff"/><path d="M1224.35,809.49v45.43c0,1.84.36,3.09,1.08,3.75.72.66,1.94.99,3.65.99v1.38c-.79-.04-1.96-.1-3.52-.16-1.56-.07-3.12-.1-4.7-.1s-3.17.03-4.77.1c-1.6.06-2.79.12-3.58.16v-1.38c1.71,0,2.92-.33,3.65-.99.72-.66,1.08-1.91,1.08-3.75v-37.54c0-1.97-.33-3.43-.99-4.37-.66-.94-1.91-1.41-3.75-1.41v-1.38c1.4.13,2.76.2,4.08.2,1.45,0,2.83-.08,4.14-.23,1.31-.15,2.52-.38,3.62-.69Z" fill="#fff"/><path d="M1244.07,826.39v28.53c0,1.84.36,3.09,1.08,3.75.72.66,1.94.99,3.65.99v1.38c-.75-.04-1.9-.1-3.45-.16-1.56-.07-3.15-.1-4.77-.1s-3.17.03-4.77.1c-1.6.06-2.79.12-3.58.16v-1.38c1.71,0,2.92-.33,3.65-.99.72-.66,1.08-1.91,1.08-3.75v-20.64c0-1.97-.33-3.43-.99-4.37-.66-.94-1.91-1.41-3.75-1.41v-1.38c1.4.13,2.76.2,4.08.2,1.49,0,2.88-.08,4.17-.23,1.29-.15,2.49-.38,3.58-.69ZM1240.13,810.54c1.36,0,2.5.43,3.42,1.28.92.85,1.38,1.92,1.38,3.19s-.46,2.33-1.38,3.19c-.92.85-2.06,1.28-3.42,1.28s-2.5-.43-3.42-1.28c-.92-.86-1.38-1.92-1.38-3.19s.46-2.33,1.38-3.19c.92-.86,2.06-1.28,3.42-1.28Z" fill="#fff"/><path d="M1263.47,816.26v10.91h9.07v1.31h-9.07v25.84c0,1.8.33,3.07.99,3.81s1.6,1.12,2.83,1.12c1.14,0,2.16-.46,3.06-1.38s1.68-2.47,2.33-4.67l1.25.46c-.53,2.32-1.46,4.29-2.79,5.88-1.34,1.6-3.3,2.4-5.88,2.4-1.49,0-2.74-.19-3.75-.56-1.01-.37-1.88-.91-2.63-1.61-.96-1.01-1.62-2.21-1.97-3.62-.35-1.4-.53-3.26-.53-5.59v-22.09h-6.05v-1.31h6.05v-9.6c1.36-.04,2.63-.16,3.81-.36,1.18-.2,2.28-.52,3.29-.95Z" fill="#fff"/><path d="M1306.26,827.11v1.32c-.83.13-1.6.56-2.3,1.28s-1.38,1.96-2.04,3.71l-10.26,27.48-1.58,1.58-12.82-30.31c-.83-1.71-1.63-2.75-2.4-3.12-.77-.37-1.41-.56-1.94-.56v-1.38c1.09.13,2.26.23,3.48.3,1.23.07,2.5.1,3.81.1,1.49,0,2.99-.04,4.5-.13,1.51-.09,2.92-.17,4.24-.26v1.38c-1.05,0-1.98.08-2.79.23-.81.15-1.34.57-1.58,1.25-.24.68-.03,1.83.62,3.45l8.15,20.05-.46.2,6.64-17.62c.66-1.75.92-3.17.79-4.24-.13-1.07-.59-1.88-1.38-2.43s-1.95-.87-3.48-.95v-1.32c.75.04,1.44.08,2.07.1.63.02,1.26.04,1.87.07.61.02,1.23.03,1.84.03.96,0,1.87-.02,2.73-.06s1.61-.09,2.27-.13ZM1291.67,860.9l-2.37,6.18c-.44,1.1-.89,2.02-1.35,2.76-.46.74-.95,1.36-1.48,1.84-.66.61-1.47,1.05-2.43,1.31-.96.26-1.93.39-2.89.39s-1.79-.16-2.6-.49c-.81-.33-1.48-.82-2.01-1.48-.53-.66-.79-1.47-.79-2.43,0-1.14.37-2.06,1.12-2.76.75-.7,1.73-1.05,2.96-1.05,1.1,0,2.02.3,2.76.89.74.59,1.12,1.46,1.12,2.6,0,.79-.21,1.47-.62,2.04-.42.57-.95,1.01-1.61,1.31.13.04.26.07.39.07h.33c1.23,0,2.32-.41,3.29-1.22.96-.81,1.77-2.12,2.43-3.91l2.37-6.31,1.38.26Z" fill="#fff"/><path d="M1342.42,814.49c8.11,0,14.13,1.96,18.08,5.88,3.94,3.92,5.92,9.54,5.92,16.86,0,4.78-.96,8.95-2.89,12.52-1.93,3.57-4.72,6.34-8.38,8.32-3.66,1.97-8.1,2.96-13.31,2.96-.66,0-1.54-.02-2.66-.07-1.12-.04-2.27-.08-3.45-.1s-2.26-.03-3.22-.03c-1.67,0-3.3.01-4.9.03-1.6.02-2.9.08-3.91.16v-1.31c1.49-.09,2.61-.26,3.35-.53.74-.26,1.24-.79,1.48-1.58.24-.79.36-1.97.36-3.55v-32.61c0-1.62-.12-2.82-.36-3.58-.24-.77-.75-1.29-1.51-1.58-.77-.28-1.87-.45-3.32-.49v-1.31c1.01.04,2.31.1,3.91.16,1.6.07,3.19.08,4.77.03,1.58-.04,3.34-.09,5.29-.13,1.95-.04,3.54-.06,4.77-.06ZM1341.3,815.67c-2.02,0-3.33.37-3.94,1.12-.61.75-.92,2.26-.92,4.54v32.87c0,2.28.32,3.79.95,4.54.64.74,1.96,1.12,3.98,1.12,4.43,0,7.87-.87,10.32-2.6,2.45-1.73,4.19-4.26,5.19-7.59,1.01-3.33,1.51-7.38,1.51-12.16s-.55-8.97-1.64-12.2c-1.1-3.22-2.88-5.63-5.36-7.23-2.48-1.6-5.84-2.4-10.09-2.4Z" fill="#fff"/><path d="M1383.44,826.39v28.53c0,1.84.36,3.09,1.08,3.75.72.66,1.94.99,3.65.99v1.38c-.75-.04-1.9-.1-3.45-.16-1.56-.07-3.15-.1-4.77-.1s-3.17.03-4.77.1c-1.6.06-2.79.12-3.58.16v-1.38c1.71,0,2.92-.33,3.65-.99.72-.66,1.08-1.91,1.08-3.75v-20.64c0-1.97-.33-3.43-.99-4.37-.66-.94-1.91-1.41-3.75-1.41v-1.38c1.4.13,2.76.2,4.08.2,1.49,0,2.88-.08,4.17-.23,1.29-.15,2.49-.38,3.58-.69ZM1379.5,810.54c1.36,0,2.5.43,3.42,1.28.92.85,1.38,1.92,1.38,3.19s-.46,2.33-1.38,3.19c-.92.85-2.06,1.28-3.42,1.28s-2.5-.43-3.42-1.28c-.92-.86-1.38-1.92-1.38-3.19s.46-2.33,1.38-3.19c.92-.86,2.06-1.28,3.42-1.28Z" fill="#fff"/><path d="M1403.56,826.19c1.75,0,3.28.28,4.57.82,1.29.55,2.22,1.04,2.79,1.48,1.45,1.14,2.34.39,2.7-2.23h1.45c-.09,1.23-.15,2.71-.2,4.44-.04,1.73-.07,4.02-.07,6.87h-1.45c-.26-1.62-.71-3.2-1.35-4.73-.64-1.53-1.56-2.8-2.76-3.81-1.21-1.01-2.77-1.51-4.7-1.51-1.45,0-2.65.41-3.62,1.22-.96.81-1.45,2.01-1.45,3.58,0,1.31.39,2.45,1.18,3.42s1.81,1.86,3.06,2.7,2.6,1.73,4.04,2.7c1.62,1.1,3.08,2.18,4.37,3.25,1.29,1.07,2.32,2.27,3.09,3.58.77,1.32,1.15,2.85,1.15,4.6,0,2.02-.54,3.72-1.61,5.13-1.07,1.4-2.49,2.46-4.24,3.19-1.75.72-3.68,1.08-5.79,1.08-1.05,0-2.04-.1-2.96-.29-.92-.2-1.77-.45-2.56-.76-.48-.26-.95-.54-1.41-.82-.46-.29-.91-.56-1.35-.82-.44-.31-.83-.26-1.18.13-.35.39-.61,1.1-.79,2.1h-1.45c.09-1.4.15-3.11.2-5.13.04-2.02.07-4.69.07-8.02h1.45c.31,2.41.77,4.54,1.38,6.38.61,1.84,1.52,3.28,2.73,4.31,1.2,1.03,2.86,1.54,4.96,1.54.83,0,1.67-.19,2.5-.56.83-.37,1.52-.97,2.07-1.81.55-.83.82-1.95.82-3.35,0-1.93-.67-3.52-2-4.77-1.34-1.25-3.06-2.57-5.16-3.98-1.49-1.05-2.9-2.09-4.24-3.12-1.34-1.03-2.42-2.19-3.25-3.48-.83-1.29-1.25-2.84-1.25-4.63,0-1.97.47-3.59,1.41-4.87.94-1.27,2.2-2.22,3.78-2.86,1.58-.63,3.26-.95,5.06-.95Z" fill="#fff"/><path d="M1437.48,826.19c2.94,0,5.54.62,7.82,1.84,2.28,1.23,4.1,3.15,5.46,5.79,1.36,2.63,2.04,6.07,2.04,10.32s-.68,7.68-2.04,10.29c-1.36,2.61-3.18,4.51-5.46,5.72-2.28,1.21-4.89,1.81-7.82,1.81s-5.5-.6-7.82-1.81-4.15-3.11-5.49-5.72-2-6.04-2-10.29.67-7.69,2-10.32c1.34-2.63,3.17-4.56,5.49-5.79s4.93-1.84,7.82-1.84ZM1437.48,827.5c-2.28,0-4.14,1.3-5.59,3.91s-2.17,6.85-2.17,12.72.72,10.09,2.17,12.66c1.45,2.56,3.31,3.85,5.59,3.85s4.09-1.28,5.56-3.85c1.47-2.56,2.2-6.78,2.2-12.66s-.73-10.11-2.2-12.72c-1.47-2.61-3.32-3.91-5.56-3.91Z" fill="#fff"/><path d="M1478.63,826.19c1.27,0,2.36.26,3.25.79.9.53,1.58,1.2,2.04,2.01.46.81.69,1.72.69,2.73,0,1.27-.38,2.36-1.15,3.25s-1.79,1.35-3.06,1.35c-1.1,0-2.03-.33-2.79-.99-.77-.66-1.15-1.55-1.15-2.7,0-.96.25-1.79.76-2.46.5-.68,1.08-1.22,1.74-1.61-.44-.35-.96-.5-1.58-.46-1.18.04-2.28.43-3.29,1.15-1.01.72-1.86,1.64-2.56,2.76-.7,1.12-1.25,2.31-1.64,3.58-.39,1.27-.59,2.46-.59,3.55v15.12c0,2.15.59,3.58,1.78,4.31,1.18.72,2.83,1.08,4.93,1.08v1.38c-1.01-.04-2.44-.1-4.31-.16-1.86-.07-3.82-.1-5.88-.1-1.58,0-3.16.03-4.73.1-1.58.06-2.78.12-3.62.16v-1.38c1.71,0,2.92-.33,3.65-.99.72-.66,1.08-1.91,1.08-3.75v-20.64c0-1.97-.33-3.43-.99-4.37-.66-.94-1.91-1.41-3.75-1.41v-1.38c1.4.13,2.76.2,4.08.2,1.49,0,2.88-.08,4.17-.23,1.29-.15,2.49-.38,3.58-.69v7.56c.53-1.27,1.23-2.5,2.1-3.68s1.93-2.16,3.16-2.93c1.23-.77,2.58-1.15,4.08-1.15Z" fill="#fff"/><path d="M1501.97,826.19c1.93,0,3.69.42,5.29,1.25s2.73,2.23,3.39,4.21l-.79.72c-.61-1.58-1.51-2.73-2.7-3.45-1.18-.72-2.52-1.08-4.01-1.08-2.5,0-4.54,1.33-6.11,3.98-1.58,2.65-2.34,6.74-2.3,12.26,0,3.64.31,6.61.92,8.91.61,2.3,1.52,4,2.73,5.1,1.21,1.1,2.66,1.64,4.37,1.64s3.25-.72,4.63-2.17c1.38-1.45,2.2-3.53,2.46-6.25l.59,1.38c-.44,2.98-1.49,5.27-3.16,6.87-1.67,1.6-3.9,2.4-6.71,2.4s-5.03-.65-7.07-1.94-3.61-3.26-4.7-5.92-1.64-5.99-1.64-10.03.67-7.31,2.01-9.96c1.34-2.65,3.12-4.63,5.36-5.95s4.71-1.97,7.43-1.97ZM1516.76,809.49v44.38c0,1.97.34,3.43,1.02,4.37.68.94,1.92,1.41,3.71,1.41v1.38c-1.36-.13-2.72-.2-4.08-.2-1.49,0-2.88.06-4.17.2-1.29.13-2.49.37-3.58.72v-44.38c0-1.97-.34-3.43-1.02-4.37-.68-.94-1.92-1.41-3.71-1.41v-1.38c1.4.13,2.76.2,4.08.2,1.45,0,2.83-.08,4.14-.23,1.32-.15,2.52-.38,3.62-.69Z" fill="#fff"/><path d="M1540.89,826.19c3.86,0,6.88,1.16,9.07,3.48,2.19,2.32,3.29,6.01,3.29,11.04h-22.68l-.13-1.25h15.84c.04-2.15-.13-4.13-.53-5.95-.39-1.82-1.01-3.28-1.84-4.37-.83-1.1-1.93-1.64-3.29-1.64-1.88,0-3.52,1-4.9,2.99-1.38,1.99-2.22,5.18-2.53,9.56l.2.33c-.04.61-.09,1.28-.13,2-.04.72-.07,1.44-.07,2.14,0,3.03.46,5.57,1.38,7.63.92,2.06,2.12,3.61,3.62,4.63,1.49,1.03,3,1.54,4.54,1.54,1.18,0,2.33-.19,3.45-.56s2.18-1.01,3.19-1.91c1.01-.9,1.91-2.13,2.7-3.71l1.31.53c-.53,1.49-1.34,2.96-2.43,4.4-1.1,1.45-2.5,2.62-4.21,3.52s-3.7,1.35-5.98,1.35c-3.07,0-5.74-.69-8.02-2.07-2.28-1.38-4.03-3.36-5.26-5.95-1.23-2.59-1.84-5.65-1.84-9.21,0-3.9.63-7.23,1.91-9.99,1.27-2.76,3.06-4.88,5.36-6.34,2.3-1.47,4.96-2.2,7.99-2.2Z" fill="#fff"/><path d="M1578.82,826.19c1.27,0,2.36.26,3.25.79.9.53,1.58,1.2,2.04,2.01.46.81.69,1.72.69,2.73,0,1.27-.38,2.36-1.15,3.25s-1.79,1.35-3.06,1.35c-1.1,0-2.03-.33-2.79-.99-.77-.66-1.15-1.55-1.15-2.7,0-.96.25-1.79.76-2.46.5-.68,1.08-1.22,1.74-1.61-.44-.35-.96-.5-1.58-.46-1.18.04-2.28.43-3.29,1.15-1.01.72-1.86,1.64-2.56,2.76-.7,1.12-1.25,2.31-1.64,3.58-.39,1.27-.59,2.46-.59,3.55v15.12c0,2.15.59,3.58,1.78,4.31,1.18.72,2.83,1.08,4.93,1.08v1.38c-1.01-.04-2.44-.1-4.31-.16-1.86-.07-3.82-.1-5.88-.1-1.58,0-3.16.03-4.73.1-1.58.06-2.78.12-3.62.16v-1.38c1.71,0,2.92-.33,3.65-.99.72-.66,1.08-1.91,1.08-3.75v-20.64c0-1.97-.33-3.43-.99-4.37-.66-.94-1.91-1.41-3.75-1.41v-1.38c1.4.13,2.76.2,4.08.2,1.49,0,2.88-.08,4.17-.23,1.29-.15,2.49-.38,3.58-.69v7.56c.53-1.27,1.23-2.5,2.1-3.68s1.93-2.16,3.16-2.93c1.23-.77,2.58-1.15,4.08-1.15Z" fill="#fff"/></svg>