<?xml version="1.0" encoding="UTF-8"?><svg id="Layer_1" xmlns="http://www.w3.org/2000/svg" viewBox="0 0 1600 617.37"><path d="M800,208.19L885.52,0h131.33v356.32h-109.44v-103.84l-44.79,103.84h-125.22l-44.79-103.84v103.84h-109.44V0h131.33l85.52,208.19Z" fill="#9ba7ba"/><path d="M1016.85,0h-131.33l-85.52,208.19L714.48,0h-131.33l154.23,356.32h125.22L1016.85,0Z" fill="#d99c87"/><path d="M23.48,496.1v-59.22H0v-20.96h73.99v20.96h-23.48v59.22h-27.03Z" fill="#9ba7ba"/><path d="M123.7,432.3c4.81,0,9.16.97,13.06,2.92s6.97,4.98,9.22,9.11c2.25,4.12,3.38,9.47,3.38,16.04v35.74h-25.89v-31.27c0-3.89-.69-6.66-2.06-8.3-1.37-1.64-3.25-2.46-5.61-2.46-1.76,0-3.38.4-4.87,1.2-1.49.8-2.68,2.12-3.55,3.95-.88,1.83-1.32,4.31-1.32,7.44v29.44h-25.89v-84.99h25.89v40.66l-6.18-5.27c2.44-4.73,5.74-8.29,9.91-10.65,4.16-2.37,8.8-3.55,13.92-3.55Z" fill="#9ba7ba"/><path d="M195.17,497.24c-7.64,0-14.3-1.41-19.99-4.24-5.69-2.82-10.1-6.7-13.23-11.63-3.13-4.93-4.7-10.48-4.7-16.66s1.55-11.95,4.64-16.84,7.33-8.71,12.71-11.46c5.38-2.75,11.43-4.12,18.16-4.12,6.18,0,11.89,1.22,17.12,3.66,5.23,2.45,9.43,6.07,12.6,10.88,3.17,4.81,4.75,10.77,4.75,17.87,0,.92-.04,1.93-.11,3.04-.08,1.11-.15,2.12-.23,3.03h-48.22v-12.48h34.48l-9.74,3.32c0-2.44-.44-4.52-1.32-6.24-.88-1.72-2.08-3.05-3.61-4.01-1.53-.95-3.36-1.43-5.5-1.43s-3.99.48-5.56,1.43c-1.57.96-2.77,2.29-3.61,4.01-.84,1.72-1.26,3.8-1.26,6.24v3.89c0,2.67.53,4.96,1.6,6.87,1.07,1.91,2.6,3.34,4.58,4.29,1.99.96,4.39,1.43,7.22,1.43s5.29-.38,7.16-1.14c1.87-.76,3.84-1.91,5.9-3.44l13.51,13.63c-3.05,3.28-6.81,5.78-11.28,7.5-4.47,1.72-9.83,2.58-16.09,2.58Z" fill="#9ba7ba"/><path d="M295.74,496.1l-33.9-80.18h29.09l27.6,67.7h-17.3l28.41-67.7h26.57l-33.9,80.18h-26.57Z" fill="#9ba7ba"/><path d="M379.93,497.24c-5.12,0-9.39-.88-12.83-2.63s-6.03-4.1-7.79-7.04c-1.76-2.94-2.63-6.2-2.63-9.79,0-4.05,1.03-7.48,3.09-10.31,2.06-2.82,5.21-4.96,9.45-6.41,4.24-1.45,9.6-2.18,16.09-2.18h13.06v12.49h-8.94c-2.75,0-4.75.44-6.01,1.32-1.26.88-1.89,2.2-1.89,3.95,0,1.45.55,2.66,1.66,3.61,1.11.96,2.62,1.43,4.52,1.43,1.76,0,3.38-.48,4.87-1.43,1.49-.95,2.58-2.46,3.27-4.52l3.32,7.67c-.99,4.66-3.09,8.13-6.3,10.42-3.21,2.29-7.52,3.44-12.94,3.44ZM397.68,496.1v-11.11l-1.83-2.98v-21.08c0-3.05-.94-5.38-2.81-6.99s-4.91-2.41-9.11-2.41c-2.83,0-5.69.44-8.59,1.32-2.9.88-5.38,2.08-7.44,3.61l-8.25-17.07c3.66-2.29,8.06-4.05,13.17-5.27,5.11-1.22,10.12-1.83,15-1.83,10.77,0,19.11,2.41,25.03,7.22,5.92,4.81,8.88,12.45,8.88,22.91v33.68h-24.05Z" fill="#9ba7ba"/><path d="M432.96,496.1v-84.99h25.89v84.99h-25.89Z" fill="#9ba7ba"/><path d="M483.24,428.41c-4.73,0-8.52-1.26-11.34-3.78-2.83-2.52-4.24-5.65-4.24-9.39s1.41-6.87,4.24-9.39c2.82-2.52,6.6-3.78,11.34-3.78s8.51,1.18,11.34,3.55c2.82,2.37,4.24,5.42,4.24,9.16,0,3.97-1.41,7.24-4.24,9.79-2.83,2.56-6.6,3.84-11.34,3.84ZM470.3,496.1v-62.65h25.89v62.65h-25.89Z" fill="#9ba7ba"/><path d="M535.12,497.24c-5.42,0-10.44-1.32-15.06-3.95-4.62-2.64-8.3-6.38-11.05-11.23-2.75-4.85-4.12-10.63-4.12-17.35s1.37-12.5,4.12-17.35c2.75-4.85,6.43-8.57,11.05-11.17,4.62-2.6,9.64-3.89,15.06-3.89s10,1.16,13.52,3.49c3.51,2.33,6.11,5.88,7.79,10.65,1.68,4.77,2.52,10.86,2.52,18.27s-.78,13.63-2.35,18.44c-1.57,4.81-4.09,8.36-7.56,10.65-3.47,2.29-8.11,3.44-13.92,3.44ZM541.31,477.08c1.91,0,3.63-.46,5.16-1.37,1.53-.91,2.75-2.31,3.66-4.18.92-1.87,1.37-4.14,1.37-6.81s-.46-5.02-1.37-6.81c-.92-1.79-2.14-3.15-3.66-4.07-1.53-.92-3.25-1.37-5.16-1.37s-3.63.46-5.15,1.37c-1.53.92-2.75,2.27-3.67,4.07-.92,1.8-1.37,4.06-1.37,6.81s.46,4.95,1.37,6.81c.92,1.87,2.14,3.27,3.67,4.18,1.53.92,3.24,1.37,5.15,1.37ZM552.31,496.1v-8.48l-.12-22.91-1.14-22.91v-30.7h25.89v84.99h-24.63Z" fill="#9ba7ba"/><path d="M608.55,497.24c-5.12,0-9.39-.88-12.83-2.63s-6.03-4.1-7.79-7.04c-1.76-2.94-2.64-6.2-2.64-9.79,0-4.05,1.03-7.48,3.09-10.31,2.06-2.82,5.21-4.96,9.45-6.41,4.24-1.45,9.6-2.18,16.09-2.18h13.06v12.49h-8.93c-2.75,0-4.75.44-6.01,1.32-1.26.88-1.89,2.2-1.89,3.95,0,1.45.55,2.66,1.66,3.61,1.11.96,2.61,1.43,4.52,1.43,1.76,0,3.38-.48,4.87-1.43,1.49-.95,2.58-2.46,3.26-4.52l3.32,7.67c-.99,4.66-3.09,8.13-6.3,10.42-3.21,2.29-7.52,3.44-12.94,3.44ZM626.3,496.1v-11.11l-1.83-2.98v-21.08c0-3.05-.94-5.38-2.81-6.99-1.87-1.6-4.91-2.41-9.11-2.41-2.83,0-5.69.44-8.59,1.32-2.9.88-5.38,2.08-7.44,3.61l-8.25-17.07c3.67-2.29,8.06-4.05,13.17-5.27s10.12-1.83,15.01-1.83c10.77,0,19.11,2.41,25.03,7.22,5.92,4.81,8.88,12.45,8.88,22.91v33.68h-24.05Z" fill="#9ba7ba"/><path d="M655.85,455.78v-18.9h47.3v18.9h-47.3ZM691.82,497.24c-8.63,0-15.35-2.08-20.16-6.24-4.81-4.16-7.21-10.56-7.21-19.19v-52.46h25.88v52.23c0,1.91.52,3.4,1.55,4.47,1.03,1.07,2.31,1.6,3.84,1.6,2.21,0,4.16-.57,5.84-1.72l6.19,17.98c-1.99,1.14-4.37,1.99-7.16,2.52-2.79.53-5.71.8-8.76.8Z" fill="#9ba7ba"/><path d="M727.21,428.41c-4.73,0-8.52-1.26-11.34-3.78-2.83-2.52-4.24-5.65-4.24-9.39s1.41-6.87,4.24-9.39c2.82-2.52,6.6-3.78,11.34-3.78s8.51,1.18,11.34,3.55c2.82,2.37,4.24,5.42,4.24,9.16,0,3.97-1.41,7.24-4.24,9.79-2.83,2.56-6.61,3.84-11.34,3.84ZM714.27,496.1v-62.65h25.88v62.65h-25.88Z" fill="#9ba7ba"/><path d="M784.71,497.24c-7.1,0-13.38-1.39-18.84-4.18-5.46-2.79-9.75-6.62-12.89-11.51-3.13-4.89-4.7-10.5-4.7-16.84s1.56-11.95,4.7-16.84,7.43-8.71,12.89-11.46c5.46-2.75,11.74-4.12,18.84-4.12s13.4,1.37,18.9,4.12c5.5,2.75,9.79,6.57,12.88,11.46,3.09,4.89,4.64,10.5,4.64,16.84s-1.55,11.95-4.64,16.84c-3.09,4.89-7.39,8.73-12.88,11.51-5.5,2.79-11.8,4.18-18.9,4.18ZM784.71,477.08c1.91,0,3.63-.46,5.16-1.37,1.53-.91,2.75-2.31,3.66-4.18.92-1.87,1.37-4.14,1.37-6.81s-.46-5.02-1.37-6.81c-.92-1.79-2.14-3.15-3.66-4.07-1.53-.92-3.25-1.37-5.16-1.37s-3.63.46-5.15,1.37c-1.53.92-2.75,2.27-3.67,4.07-.92,1.8-1.37,4.06-1.37,6.81s.46,4.95,1.37,6.81c.92,1.87,2.14,3.27,3.67,4.18,1.53.92,3.24,1.37,5.15,1.37Z" fill="#9ba7ba"/><path d="M872.79,432.3c4.81,0,9.16.97,13.06,2.92s6.97,4.98,9.22,9.11c2.25,4.12,3.38,9.47,3.38,16.04v35.74h-25.89v-31.27c0-3.89-.69-6.66-2.06-8.3-1.37-1.64-3.25-2.46-5.61-2.46-1.76,0-3.38.4-4.87,1.2-1.49.8-2.67,2.12-3.55,3.95-.88,1.83-1.32,4.31-1.32,7.44v29.44h-25.88v-62.65h24.63v18.33l-4.93-5.27c2.44-4.73,5.74-8.29,9.91-10.65,4.16-2.37,8.8-3.55,13.92-3.55Z" fill="#9ba7ba"/><path d="M944.83,496.1v-80.18h22.22l32.07,52.35h-11.68l31.16-52.35h22.22l.23,80.18h-24.63l-.23-43.07h3.89l-21.31,35.85h-11.91l-22.22-35.85h4.81v43.07h-24.63Z" fill="#9ba7ba"/><path d="M1086.4,497.24c-7.1,0-13.38-1.39-18.84-4.18-5.46-2.79-9.75-6.62-12.89-11.51-3.13-4.89-4.7-10.5-4.7-16.84s1.56-11.95,4.7-16.84,7.43-8.71,12.89-11.46c5.46-2.75,11.74-4.12,18.84-4.12s13.4,1.37,18.9,4.12c5.5,2.75,9.79,6.57,12.88,11.46,3.09,4.89,4.64,10.5,4.64,16.84s-1.55,11.95-4.64,16.84c-3.09,4.89-7.39,8.73-12.88,11.51-5.5,2.79-11.8,4.18-18.9,4.18ZM1086.4,477.08c1.91,0,3.63-.46,5.16-1.37,1.53-.91,2.75-2.31,3.66-4.18.92-1.87,1.37-4.14,1.37-6.81s-.46-5.02-1.37-6.81c-.92-1.79-2.14-3.15-3.66-4.07-1.53-.92-3.25-1.37-5.16-1.37s-3.63.46-5.15,1.37c-1.53.92-2.75,2.27-3.67,4.07-.92,1.8-1.37,4.06-1.37,6.81s.46,4.95,1.37,6.81c.92,1.87,2.14,3.27,3.67,4.18,1.53.92,3.24,1.37,5.15,1.37Z" fill="#9ba7ba"/><path d="M1148.71,496.1l-25.2-62.65h26.57l19.13,50.86h-13.4l20.39-50.86h24.51l-25.2,62.65h-26.8Z" fill="#9ba7ba"/><path d="M1239.31,497.24c-7.64,0-14.3-1.41-19.99-4.24-5.69-2.82-10.1-6.7-13.23-11.63-3.13-4.93-4.7-10.48-4.7-16.66s1.55-11.95,4.64-16.84,7.33-8.71,12.71-11.46c5.38-2.75,11.43-4.12,18.15-4.12,6.19,0,11.89,1.22,17.12,3.66,5.23,2.45,9.43,6.07,12.6,10.88,3.17,4.81,4.75,10.77,4.75,17.87,0,.92-.04,1.93-.12,3.04s-.15,2.12-.23,3.03h-48.22v-12.48h34.48l-9.74,3.32c0-2.44-.44-4.52-1.32-6.24-.88-1.72-2.08-3.05-3.61-4.01-1.53-.95-3.36-1.43-5.5-1.43s-3.99.48-5.56,1.43c-1.57.96-2.77,2.29-3.61,4.01-.84,1.72-1.26,3.8-1.26,6.24v3.89c0,2.67.53,4.96,1.6,6.87,1.07,1.91,2.59,3.34,4.58,4.29,1.99.96,4.39,1.43,7.22,1.43s5.29-.38,7.16-1.14c1.87-.76,3.84-1.91,5.9-3.44l13.52,13.63c-3.06,3.28-6.81,5.78-11.28,7.5-4.47,1.72-9.83,2.58-16.09,2.58Z" fill="#9ba7ba"/><path d="M1362.44,432.3c4.73,0,8.99.97,12.77,2.92,3.78,1.95,6.76,4.98,8.94,9.11,2.18,4.12,3.26,9.47,3.26,16.04v35.74h-25.89v-31.27c0-3.89-.65-6.66-1.95-8.3-1.3-1.64-2.98-2.46-5.04-2.46-1.53,0-2.9.38-4.12,1.15-1.22.76-2.2,1.97-2.92,3.61-.73,1.64-1.09,3.88-1.09,6.7v30.58h-25.89v-31.27c0-3.89-.61-6.66-1.83-8.3-1.22-1.64-2.94-2.46-5.16-2.46-1.53,0-2.9.38-4.12,1.15-1.22.76-2.2,1.97-2.92,3.61-.73,1.64-1.09,3.88-1.09,6.7v30.58h-25.88v-62.65h24.63v17.98l-5.04-5.04c2.37-4.73,5.54-8.27,9.51-10.59,3.97-2.33,8.4-3.49,13.29-3.49,5.5,0,10.37,1.43,14.6,4.29,4.24,2.86,7.08,7.39,8.53,13.57l-7.9-1.26c2.29-5.19,5.63-9.26,10.02-12.2,4.39-2.94,9.49-4.41,15.29-4.41Z" fill="#9ba7ba"/><path d="M1433.23,497.24c-7.64,0-14.3-1.41-19.99-4.24-5.69-2.82-10.1-6.7-13.23-11.63-3.13-4.93-4.7-10.48-4.7-16.66s1.55-11.95,4.64-16.84,7.33-8.71,12.71-11.46c5.38-2.75,11.43-4.12,18.15-4.12,6.19,0,11.89,1.22,17.12,3.66,5.23,2.45,9.43,6.07,12.6,10.88,3.17,4.81,4.75,10.77,4.75,17.87,0,.92-.04,1.93-.12,3.04s-.15,2.12-.23,3.03h-48.22v-12.48h34.48l-9.74,3.32c0-2.44-.44-4.52-1.32-6.24-.88-1.72-2.08-3.05-3.61-4.01-1.53-.95-3.36-1.43-5.5-1.43s-3.99.48-5.56,1.43c-1.57.96-2.77,2.29-3.61,4.01-.84,1.72-1.26,3.8-1.26,6.24v3.89c0,2.67.53,4.96,1.6,6.87,1.07,1.91,2.59,3.34,4.58,4.29,1.99.96,4.39,1.43,7.22,1.43s5.29-.38,7.16-1.14c1.87-.76,3.84-1.91,5.9-3.44l13.52,13.63c-3.06,3.28-6.81,5.78-11.28,7.5-4.47,1.72-9.83,2.58-16.09,2.58Z" fill="#9ba7ba"/><path d="M1516.96,432.3c4.81,0,9.16.97,13.06,2.92s6.97,4.98,9.22,9.11c2.25,4.12,3.38,9.47,3.38,16.04v35.74h-25.89v-31.27c0-3.89-.69-6.66-2.06-8.3-1.37-1.64-3.25-2.46-5.61-2.46-1.76,0-3.38.4-4.87,1.2-1.49.8-2.67,2.12-3.55,3.95-.88,1.83-1.32,4.31-1.32,7.44v29.44h-25.88v-62.65h24.63v18.33l-4.93-5.27c2.44-4.73,5.74-8.29,9.91-10.65,4.16-2.37,8.8-3.55,13.92-3.55Z" fill="#9ba7ba"/><path d="M1548.11,455.78v-18.9h47.3v18.9h-47.3ZM1584.08,497.24c-8.63,0-15.35-2.08-20.16-6.24-4.81-4.16-7.21-10.56-7.21-19.19v-52.46h25.88v52.23c0,1.91.52,3.4,1.55,4.47,1.03,1.07,2.31,1.6,3.84,1.6,2.21,0,4.16-.57,5.84-1.72l6.19,17.98c-1.99,1.14-4.37,1.99-7.16,2.52-2.79.53-5.71.8-8.76.8Z" fill="#9ba7ba"/><path d="M380.41,545.32c-.22,2.31-.36,4.53-.44,6.68-.08,2.15-.12,3.78-.12,4.91,0,1.23.03,2.39.08,3.46.05,1.07.11,2.01.16,2.81h-1.85c-.59-4.02-1.39-7.2-2.41-9.53-1.02-2.33-2.39-3.99-4.1-4.99-1.72-.99-3.99-1.49-6.84-1.49h-3.46c-1.66,0-2.91.14-3.74.4-.83.27-1.39.83-1.69,1.69-.3.86-.44,2.17-.44,3.94v40.21c0,2.04.21,3.57.64,4.58.43,1.02,1.26,1.69,2.49,2.01,1.23.32,3,.51,5.31.56v1.69c-1.55-.11-3.57-.17-6.03-.2-2.47-.03-5.01-.04-7.64-.04-2.25,0-4.42.01-6.51.04-2.09.03-3.91.09-5.47.2v-1.61c1.77-.11,3.1-.32,3.98-.64.88-.32,1.47-.96,1.77-1.93.29-.97.44-2.41.44-4.34v-39.89c0-1.98-.15-3.44-.44-4.38-.3-.94-.88-1.58-1.77-1.93-.89-.35-2.21-.55-3.98-.6v-1.61c2.14.05,4.41.09,6.8.12,2.38.03,4.74.05,7.08.08,2.33.03,4.49.04,6.47.04h4.91c2.47,0,5.27-.01,8.4-.04,3.14-.03,5.94-.09,8.4-.2ZM368.27,573.3v1.61h-15.12v-1.61h15.12ZM370.12,562.69c-.22,3.05-.31,5.39-.28,7,.03,1.61.04,3.08.04,4.42s.03,2.81.08,4.42c.05,1.61.19,3.94.4,7h-1.85c-.22-1.82-.62-3.55-1.21-5.19-.59-1.64-1.49-2.95-2.69-3.94-1.21-.99-2.94-1.49-5.19-1.49v-1.61c1.66,0,3.03-.35,4.1-1.05,1.07-.7,1.92-1.59,2.53-2.69.62-1.1,1.1-2.25,1.45-3.46s.6-2.35.76-3.42h1.85Z" fill="#5c6a7a"/><path d="M403.09,559.55c3.7,0,6.98.74,9.85,2.21s5.15,3.82,6.84,7.04,2.53,7.45,2.53,12.71-.85,9.49-2.53,12.71-3.97,5.55-6.84,7c-2.87,1.45-6.15,2.17-9.85,2.17s-7-.72-9.89-2.17c-2.89-1.45-5.17-3.78-6.84-7s-2.49-7.45-2.49-12.71.83-9.49,2.49-12.71,3.94-5.56,6.84-7.04c2.9-1.47,6.19-2.21,9.89-2.21ZM403.09,561.16c-2.52,0-4.57,1.6-6.15,4.78-1.58,3.19-2.37,8.38-2.37,15.56s.79,12.36,2.37,15.52,3.63,4.75,6.15,4.75,4.5-1.58,6.11-4.75,2.41-8.34,2.41-15.52-.8-12.37-2.41-15.56c-1.61-3.19-3.65-4.78-6.11-4.78Z" fill="#5c6a7a"/><path d="M454.32,559.55c1.66,0,3.04.35,4.14,1.04,1.1.7,1.92,1.58,2.45,2.65.54,1.07.8,2.2.8,3.38,0,1.77-.52,3.25-1.57,4.42-1.05,1.18-2.43,1.77-4.14,1.77-1.61,0-2.92-.43-3.94-1.29-1.02-.86-1.53-2.04-1.53-3.54,0-1.34.33-2.47,1.01-3.38.67-.91,1.43-1.63,2.29-2.17-.59-.32-1.26-.43-2.01-.32-1.29.11-2.47.56-3.54,1.37-1.07.8-1.99,1.8-2.73,2.97-.75,1.18-1.33,2.44-1.73,3.78-.4,1.34-.6,2.63-.6,3.86v19.86c0,2.63.67,4.38,2.01,5.27,1.34.88,3.3,1.33,5.87,1.33v1.69c-1.23-.05-3.02-.12-5.35-.2s-4.76-.12-7.28-.12c-2.09,0-4.17.04-6.23.12s-3.61.15-4.62.2v-1.69c1.98,0,3.39-.4,4.22-1.21s1.25-2.33,1.25-4.58v-25.33c0-2.41-.39-4.19-1.17-5.35s-2.21-1.73-4.3-1.73v-1.69c1.72.16,3.38.24,4.99.24,1.98,0,3.87-.09,5.67-.28,1.8-.19,3.44-.47,4.95-.85v8.36c.64-1.5,1.49-2.89,2.53-4.18,1.04-1.29,2.3-2.35,3.78-3.18,1.47-.83,3.07-1.25,4.79-1.25Z" fill="#5c6a7a"/><path d="M496.3,547.49v13.27h10.29v1.61h-10.29v32.01c0,1.93.35,3.3,1.05,4.1.7.8,1.69,1.21,2.97,1.21s2.36-.47,3.38-1.41,1.93-2.51,2.73-4.71l1.45.64c-.8,2.63-2.05,4.81-3.74,6.55-1.69,1.74-4.06,2.61-7.12,2.61-1.82,0-3.37-.23-4.62-.68-1.26-.46-2.35-1.11-3.26-1.97-1.18-1.23-1.97-2.71-2.37-4.42-.4-1.72-.6-3.99-.6-6.84v-27.1h-7.08v-1.61h7.08v-11.18c1.93-.05,3.73-.24,5.39-.56,1.66-.32,3.24-.83,4.75-1.53Z" fill="#5c6a7a"/><path d="M524.45,539.28v28.47c1.34-3,3.2-5.12,5.59-6.35,2.38-1.23,4.97-1.85,7.76-1.85,2.2,0,3.99.3,5.39.88,1.39.59,2.52,1.34,3.38,2.25.91,1.02,1.57,2.33,1.97,3.94s.6,3.78.6,6.52v21.63c0,2.25.41,3.78,1.25,4.58.83.8,2.24,1.21,4.22,1.21v1.69c-.97-.05-2.44-.12-4.42-.2-1.99-.08-3.94-.12-5.87-.12s-3.83.04-5.71.12c-1.88.08-3.3.15-4.26.2v-1.69c1.72,0,2.92-.4,3.62-1.21.7-.8,1.05-2.33,1.05-4.58v-24.37c0-1.45-.14-2.75-.4-3.9-.27-1.15-.79-2.06-1.57-2.73s-1.94-1.01-3.5-1.01c-1.72,0-3.26.47-4.62,1.41-1.37.94-2.45,2.25-3.26,3.94-.8,1.69-1.21,3.61-1.21,5.75v20.91c0,2.25.36,3.78,1.09,4.58s1.92,1.21,3.58,1.21v1.69c-.91-.05-2.26-.12-4.06-.2-1.8-.08-3.66-.12-5.59-.12s-3.93.04-5.99.12c-2.07.08-3.61.15-4.62.2v-1.69c1.98,0,3.39-.4,4.22-1.21.83-.8,1.25-2.33,1.25-4.58v-45.84c0-2.41-.39-4.19-1.17-5.35-.78-1.15-2.21-1.73-4.3-1.73v-1.69c1.72.16,3.38.24,4.99.24,2.04,0,3.94-.09,5.71-.28,1.77-.19,3.41-.47,4.91-.85Z" fill="#5c6a7a"/><path d="M578.25,559.55c3.7,0,6.98.74,9.85,2.21s5.15,3.82,6.84,7.04,2.53,7.45,2.53,12.71-.85,9.49-2.53,12.71-3.97,5.55-6.84,7c-2.87,1.45-6.15,2.17-9.85,2.17s-7-.72-9.89-2.17c-2.89-1.45-5.17-3.78-6.84-7s-2.49-7.45-2.49-12.71.83-9.49,2.49-12.71,3.94-5.56,6.84-7.04c2.9-1.47,6.19-2.21,9.89-2.21ZM578.25,561.16c-2.52,0-4.57,1.6-6.15,4.78-1.58,3.19-2.37,8.38-2.37,15.56s.79,12.36,2.37,15.52,3.63,4.75,6.15,4.75,4.5-1.58,6.11-4.75,2.41-8.34,2.41-15.52-.8-12.37-2.41-15.56c-1.61-3.19-3.65-4.78-6.11-4.78Z" fill="#5c6a7a"/><path d="M618.13,559.55c2.25,0,4.18.32,5.79.96,1.61.64,2.79,1.21,3.54,1.69,1.82,1.34,2.92.48,3.3-2.57h1.77c-.11,1.55-.19,3.39-.24,5.51-.05,2.12-.08,4.95-.08,8.48h-1.77c-.27-1.98-.78-3.91-1.53-5.79-.75-1.88-1.85-3.44-3.3-4.7-1.45-1.26-3.35-1.89-5.71-1.89-1.66,0-3.04.48-4.14,1.45-1.1.96-1.65,2.33-1.65,4.1,0,1.61.48,3.02,1.45,4.22s2.21,2.33,3.74,3.38c1.53,1.05,3.12,2.18,4.78,3.42,1.93,1.29,3.65,2.59,5.15,3.9,1.5,1.31,2.71,2.76,3.62,4.34.91,1.58,1.37,3.45,1.37,5.59,0,2.47-.68,4.57-2.05,6.31-1.37,1.74-3.16,3.08-5.39,4.02s-4.68,1.41-7.36,1.41c-1.45,0-2.76-.14-3.94-.4-1.18-.27-2.23-.62-3.14-1.05-.7-.37-1.33-.72-1.89-1.04-.56-.32-1.14-.59-1.73-.8-.54-.27-1.01-.16-1.41.32-.4.48-.71,1.29-.93,2.41h-1.77c.11-1.72.19-3.81.24-6.27s.08-5.74.08-9.81h1.77c.37,2.95.95,5.54,1.73,7.76.78,2.23,1.92,3.97,3.42,5.23,1.5,1.26,3.43,1.89,5.79,1.89,1.02,0,2-.21,2.94-.64.94-.43,1.72-1.1,2.33-2.01.62-.91.93-2.14.93-3.7,0-2.36-.8-4.32-2.41-5.87s-3.62-3.22-6.03-4.99c-1.82-1.34-3.53-2.65-5.11-3.94s-2.87-2.73-3.86-4.34c-.99-1.61-1.49-3.51-1.49-5.71,0-2.41.62-4.41,1.85-5.99,1.23-1.58,2.86-2.79,4.87-3.62,2.01-.83,4.17-1.25,6.47-1.25Z" fill="#5c6a7a"/><path d="M659.79,559.55c4.72,0,8.42,1.42,11.1,4.26,2.68,2.84,4.02,7.37,4.02,13.59h-27.1l-.08-1.53h17.85c.11-2.63-.05-5.05-.48-7.28-.43-2.22-1.11-4.01-2.05-5.35-.94-1.34-2.16-2.01-3.66-2.01-2.04,0-3.81,1.19-5.31,3.58-1.5,2.39-2.44,6.29-2.81,11.7l.32.48c-.11.7-.17,1.45-.2,2.25s-.04,1.61-.04,2.41c0,3.7.53,6.76,1.61,9.17,1.07,2.41,2.46,4.18,4.18,5.31,1.72,1.13,3.48,1.69,5.31,1.69,1.23,0,2.49-.19,3.78-.56,1.29-.38,2.54-1.07,3.78-2.09,1.23-1.02,2.36-2.46,3.38-4.34l1.53.64c-.59,1.88-1.57,3.74-2.94,5.59-1.37,1.85-3.12,3.36-5.27,4.54-2.15,1.18-4.66,1.77-7.56,1.77-3.65,0-6.86-.8-9.65-2.41-2.79-1.61-4.96-4.01-6.51-7.2-1.56-3.19-2.33-7.09-2.33-11.7,0-4.88.82-8.98,2.45-12.3,1.63-3.32,3.9-5.86,6.79-7.6,2.89-1.74,6.19-2.61,9.89-2.61Z" fill="#5c6a7a"/><path d="M713.03,539.28v55.49c0,2.25.41,3.78,1.25,4.58s2.24,1.21,4.22,1.21v1.69c-.96-.05-2.43-.12-4.38-.2s-3.95-.12-5.99-.12-4.01.04-6.07.12-3.61.15-4.62.2v-1.69c1.98,0,3.39-.4,4.22-1.21.83-.8,1.25-2.33,1.25-4.58v-45.84c0-2.41-.39-4.19-1.17-5.35s-2.21-1.73-4.3-1.73v-1.69c1.72.16,3.38.24,4.99.24,2.04,0,3.94-.09,5.71-.28,1.77-.19,3.4-.47,4.91-.85Z" fill="#5c6a7a"/><path d="M737.87,559.79v34.98c0,2.25.41,3.78,1.25,4.58.83.8,2.24,1.21,4.22,1.21v1.69c-.97-.05-2.44-.12-4.42-.2-1.99-.08-4-.12-6.03-.12s-4,.04-6.03.12c-2.04.08-3.57.15-4.58.2v-1.69c1.98,0,3.39-.4,4.22-1.21s1.25-2.33,1.25-4.58v-25.33c0-2.41-.39-4.19-1.17-5.35s-2.21-1.73-4.3-1.73v-1.69c1.72.16,3.38.24,4.99.24,1.98,0,3.87-.09,5.67-.28,1.8-.19,3.44-.47,4.95-.85ZM732.25,540.17c1.93,0,3.51.54,4.75,1.61,1.23,1.07,1.85,2.49,1.85,4.26s-.62,3.19-1.85,4.26c-1.23,1.07-2.81,1.61-4.75,1.61s-3.51-.54-4.75-1.61-1.85-2.49-1.85-4.26.62-3.19,1.85-4.26,2.81-1.61,4.75-1.61Z" fill="#5c6a7a"/><path d="M785,560.68v1.69c-1.02.22-1.97.78-2.86,1.69-.88.91-1.73,2.52-2.53,4.83l-12.3,33.62c-.64-.05-1.29-.08-1.93-.08s-1.31.03-2.01.08l-14.48-35.63c-.8-2.04-1.64-3.3-2.49-3.78-.86-.48-1.58-.72-2.17-.72v-1.69c1.5.11,3.05.2,4.66.28s3.38.12,5.31.12c1.66,0,3.42-.04,5.27-.12s3.58-.17,5.19-.28v1.69c-1.18,0-2.24.08-3.18.24-.94.16-1.57.58-1.89,1.25-.32.67-.19,1.84.4,3.5l9.65,25.01-.72.89,7.32-19.86c.91-2.52,1.29-4.56,1.13-6.11s-.74-2.73-1.73-3.54c-.99-.8-2.4-1.26-4.22-1.37v-1.69c.91.05,1.78.11,2.61.16s1.66.09,2.49.12,1.62.04,2.37.04c1.13,0,2.24-.03,3.34-.08,1.1-.05,2.02-.13,2.77-.24Z" fill="#5c6a7a"/><path d="M802.77,559.79v34.98c0,2.25.41,3.78,1.25,4.58.83.8,2.24,1.21,4.22,1.21v1.69c-.97-.05-2.44-.12-4.42-.2-1.99-.08-4-.12-6.03-.12s-4,.04-6.03.12c-2.04.08-3.57.15-4.58.2v-1.69c1.98,0,3.39-.4,4.22-1.21s1.25-2.33,1.25-4.58v-25.33c0-2.41-.39-4.19-1.17-5.35s-2.21-1.73-4.3-1.73v-1.69c1.72.16,3.38.24,4.99.24,1.98,0,3.87-.09,5.67-.28,1.8-.19,3.44-.47,4.95-.85ZM797.14,540.17c1.93,0,3.51.54,4.75,1.61,1.23,1.07,1.85,2.49,1.85,4.26s-.62,3.19-1.85,4.26c-1.23,1.07-2.81,1.61-4.75,1.61s-3.51-.54-4.75-1.61-1.85-2.49-1.85-4.26.62-3.19,1.85-4.26,2.81-1.61,4.75-1.61Z" fill="#5c6a7a"/><path d="M840.81,559.55c2.25,0,4.06.3,5.43.88,1.37.59,2.48,1.34,3.34,2.25.96,1.02,1.65,2.33,2.05,3.94s.6,3.78.6,6.52v21.63c0,2.25.41,3.78,1.25,4.58.83.8,2.24,1.21,4.22,1.21v1.69c-.96-.05-2.45-.12-4.46-.2s-3.95-.12-5.83-.12c-1.98,0-3.91.04-5.79.12-1.88.08-3.27.15-4.18.2v-1.69c1.72,0,2.92-.4,3.62-1.21.7-.8,1.04-2.33,1.04-4.58v-24.37c0-1.45-.13-2.75-.4-3.9s-.8-2.06-1.61-2.73-1.96-1.01-3.46-1.01c-1.77,0-3.34.48-4.71,1.45-1.37.97-2.44,2.29-3.22,3.98s-1.17,3.58-1.17,5.67v20.91c0,2.25.35,3.78,1.05,4.58.7.8,1.9,1.21,3.62,1.21v1.69c-.91-.05-2.28-.12-4.1-.2s-3.67-.12-5.55-.12c-1.99,0-4,.04-6.03.12-2.04.08-3.57.15-4.58.2v-1.69c1.98,0,3.39-.4,4.22-1.21s1.25-2.33,1.25-4.58v-25.33c0-2.41-.39-4.19-1.17-5.35s-2.21-1.73-4.3-1.73v-1.69c1.72.16,3.38.24,4.99.24,1.98,0,3.87-.09,5.67-.28,1.8-.19,3.44-.47,4.95-.85v8.04c1.34-3.05,3.19-5.2,5.55-6.43,2.36-1.23,4.93-1.85,7.72-1.85Z" fill="#5c6a7a"/><path d="M875.47,617.37c-3.16,0-6.03-.3-8.6-.89-2.57-.59-4.61-1.46-6.11-2.61-1.5-1.15-2.25-2.61-2.25-4.38s.75-3.25,2.25-4.58c1.5-1.34,3.7-2.36,6.59-3.06l.56,1.29c-1.02.59-1.8,1.39-2.33,2.41-.54,1.02-.8,2.09-.8,3.22,0,2.3,1.06,4.09,3.18,5.35,2.12,1.26,4.95,1.89,8.48,1.89,2.41,0,4.64-.32,6.67-.96,2.04-.64,3.67-1.64,4.91-2.98s1.85-3,1.85-4.99c0-1.66-.6-3.06-1.81-4.18-1.21-1.13-3.61-1.69-7.2-1.69h-5.31c-1.98,0-3.79-.21-5.43-.64s-2.93-1.13-3.9-2.09c-.96-.97-1.45-2.31-1.45-4.02,0-2.09.86-3.98,2.57-5.67,1.72-1.69,4.39-3.34,8.04-4.95l.88.72c-1.34.7-2.53,1.45-3.58,2.25-1.05.8-1.57,1.82-1.57,3.05,0,1.72,1.18,2.57,3.54,2.57h9.09c2.79,0,5.27.35,7.44,1.04,2.17.7,3.9,1.8,5.19,3.3,1.29,1.5,1.93,3.49,1.93,5.95s-.83,4.97-2.49,7.2c-1.66,2.22-4.17,4.02-7.52,5.39-3.35,1.37-7.63,2.05-12.83,2.05ZM876.2,585.12c-2.89,0-5.51-.44-7.84-1.33-2.33-.89-4.17-2.28-5.51-4.18-1.34-1.9-2.01-4.33-2.01-7.28s.67-5.36,2.01-7.24c1.34-1.88,3.18-3.27,5.51-4.18,2.33-.91,4.95-1.37,7.84-1.37s5.58.46,7.88,1.37c2.3.91,4.13,2.31,5.47,4.18s2.01,4.29,2.01,7.24-.67,5.37-2.01,7.28c-1.34,1.9-3.16,3.3-5.47,4.18-2.31.88-4.93,1.33-7.88,1.33ZM876.2,583.68c1.61,0,2.88-.82,3.82-2.45.94-1.64,1.41-4.6,1.41-8.89s-.47-7.25-1.41-8.89c-.94-1.64-2.21-2.45-3.82-2.45s-2.88.82-3.82,2.45c-.94,1.64-1.41,4.6-1.41,8.89s.47,7.25,1.41,8.89c.94,1.64,2.21,2.45,3.82,2.45ZM888.34,566.39l-1.53-.56c.8-1.98,2.12-3.66,3.94-5.03,1.82-1.37,3.75-2.05,5.79-2.05,1.55,0,2.77.43,3.66,1.29s1.33,2.06,1.33,3.62-.43,2.79-1.29,3.54c-.86.75-1.8,1.13-2.81,1.13-.91,0-1.74-.31-2.49-.93-.75-.62-1.18-1.58-1.29-2.89s.32-2.96,1.29-4.95l.8.32c-2.09.8-3.65,1.69-4.66,2.65-1.02.97-1.93,2.25-2.73,3.86Z" fill="#5c6a7a"/><path d="M939,560.68v1.69c-1.29,0-2.39.09-3.3.28-.91.19-1.52.63-1.81,1.33-.3.7-.17,1.93.36,3.7l7.88,23.97-.88.64,10.21-31.77,1.69.8-13.11,41.18c-.64-.05-1.3-.08-1.97-.08s-1.33.03-1.97.08l-12.87-35.63c-.86-2.14-1.7-3.43-2.53-3.86-.83-.43-1.54-.64-2.13-.64v-1.69c1.5.16,3.06.28,4.66.36s3.38.12,5.31.12c1.66,0,3.42-.05,5.27-.16,1.85-.11,3.58-.21,5.19-.32ZM981.71,560.68v1.69c-1.02.22-2,.76-2.94,1.65-.94.89-1.78,2.51-2.53,4.87l-11.02,33.62c-.64-.05-1.29-.08-1.93-.08s-1.31.03-2.01.08l-11.82-31.61,2.09-10.37c.75.05,1.5.08,2.25.08s1.5-.03,2.25-.08l11.5,32.73-.8-.4,6.27-19.46c.8-2.57,1.11-4.64.92-6.19s-.8-2.72-1.85-3.5c-1.05-.78-2.48-1.22-4.3-1.33v-1.69c.86.05,1.74.11,2.65.16.91.05,1.8.09,2.65.12.86.03,1.66.04,2.41.04,1.13,0,2.25-.03,3.38-.08,1.13-.05,2.06-.13,2.81-.24Z" fill="#5c6a7a"/><path d="M999.4,559.79v34.98c0,2.25.41,3.78,1.25,4.58.83.8,2.24,1.21,4.22,1.21v1.69c-.97-.05-2.44-.12-4.42-.2-1.99-.08-4-.12-6.03-.12s-4,.04-6.03.12c-2.04.08-3.57.15-4.58.2v-1.69c1.98,0,3.39-.4,4.22-1.21s1.25-2.33,1.25-4.58v-25.33c0-2.41-.39-4.19-1.17-5.35s-2.21-1.73-4.3-1.73v-1.69c1.72.16,3.38.24,4.99.24,1.98,0,3.87-.09,5.67-.28,1.8-.19,3.44-.47,4.95-.85ZM993.77,540.17c1.93,0,3.51.54,4.75,1.61,1.23,1.07,1.85,2.49,1.85,4.26s-.62,3.19-1.85,4.26c-1.23,1.07-2.81,1.61-4.75,1.61s-3.51-.54-4.75-1.61-1.85-2.49-1.85-4.26.62-3.19,1.85-4.26,2.81-1.61,4.75-1.61Z" fill="#5c6a7a"/><path d="M1023.76,547.49v13.27h10.29v1.61h-10.29v32.01c0,1.93.35,3.3,1.05,4.1.7.8,1.69,1.21,2.97,1.21s2.36-.47,3.38-1.41,1.93-2.51,2.73-4.71l1.45.64c-.8,2.63-2.05,4.81-3.74,6.55s-4.06,2.61-7.12,2.61c-1.82,0-3.37-.23-4.62-.68-1.26-.46-2.35-1.11-3.26-1.97-1.18-1.23-1.97-2.71-2.37-4.42-.4-1.72-.6-3.99-.6-6.84v-27.1h-7.08v-1.61h7.08v-11.18c1.93-.05,3.73-.24,5.39-.56,1.66-.32,3.24-.83,4.75-1.53Z" fill="#5c6a7a"/><path d="M1051.91,539.28v28.47c1.34-3,3.2-5.12,5.59-6.35,2.38-1.23,4.97-1.85,7.76-1.85,2.2,0,3.99.3,5.39.88,1.39.59,2.52,1.34,3.38,2.25.91,1.02,1.57,2.33,1.97,3.94s.6,3.78.6,6.52v21.63c0,2.25.41,3.78,1.25,4.58.83.8,2.24,1.21,4.22,1.21v1.69c-.97-.05-2.44-.12-4.42-.2-1.99-.08-3.94-.12-5.87-.12s-3.83.04-5.71.12c-1.88.08-3.3.15-4.26.2v-1.69c1.72,0,2.92-.4,3.62-1.21.7-.8,1.05-2.33,1.05-4.58v-24.37c0-1.45-.14-2.75-.4-3.9-.27-1.15-.79-2.06-1.57-2.73s-1.94-1.01-3.5-1.01c-1.72,0-3.26.47-4.62,1.41-1.37.94-2.45,2.25-3.26,3.94-.8,1.69-1.21,3.61-1.21,5.75v20.91c0,2.25.36,3.78,1.09,4.58s1.92,1.21,3.58,1.21v1.69c-.91-.05-2.26-.12-4.06-.2-1.8-.08-3.66-.12-5.59-.12s-3.93.04-5.99.12c-2.07.08-3.61.15-4.62.2v-1.69c1.98,0,3.39-.4,4.22-1.21.83-.8,1.25-2.33,1.25-4.58v-45.84c0-2.41-.39-4.19-1.17-5.35-.78-1.15-2.21-1.73-4.3-1.73v-1.69c1.72.16,3.38.24,4.99.24,2.04,0,3.94-.09,5.71-.28,1.77-.19,3.41-.47,4.91-.85Z" fill="#5c6a7a"/><path d="M1105.31,545.32c1.29.05,2.99.11,5.11.16s4.22.08,6.31.08c2.57,0,5.05-.03,7.44-.08,2.38-.05,4.06-.08,5.03-.08,6.33,0,11.06,1.18,14.19,3.54,3.14,2.36,4.71,5.39,4.71,9.09,0,1.88-.5,3.75-1.49,5.63-.99,1.88-2.57,3.57-4.74,5.07-2.17,1.5-5,2.63-8.48,3.38v.16c4.72.43,8.46,1.38,11.22,2.86,2.76,1.47,4.73,3.22,5.91,5.23,1.18,2.01,1.77,4.12,1.77,6.31,0,3.27-.85,6.07-2.53,8.4-1.69,2.33-4.13,4.12-7.32,5.35-3.19,1.23-6.98,1.85-11.38,1.85-1.18,0-2.97-.04-5.39-.12-2.41-.08-5.34-.12-8.77-.12-2.2,0-4.36.01-6.47.04-2.12.03-3.82.09-5.11.2v-1.61c1.77-.11,3.1-.32,3.98-.64.88-.32,1.47-.96,1.77-1.93.29-.97.44-2.41.44-4.34v-39.89c0-1.98-.15-3.44-.44-4.38-.3-.94-.88-1.58-1.77-1.93-.89-.35-2.21-.55-3.98-.6v-1.61ZM1127.83,546.92c-2.2,0-3.63.46-4.3,1.37-.67.91-1.01,2.76-1.01,5.55v39.89c0,1.88.15,3.3.44,4.26.29.97.86,1.61,1.69,1.93.83.32,2.02.48,3.58.48,4.34,0,7.51-1.22,9.49-3.66,1.98-2.44,2.97-5.91,2.97-10.42,0-4.13-1.06-7.32-3.18-9.57-2.12-2.25-5.62-3.38-10.5-3.38h-7.32v-1.37h6.92c2.73,0,4.84-.6,6.31-1.81,1.47-1.21,2.49-2.81,3.06-4.83s.85-4.17.85-6.47c0-3.97-.7-6.96-2.09-8.97-1.39-2.01-3.7-3.02-6.92-3.02Z" fill="#5c6a7a"/><path d="M1157.66,545.32c1.34.05,3.06.11,5.15.16s4.18.08,6.27.08c2.63,0,5.12-.03,7.48-.08s4.02-.08,4.99-.08c7.18,0,12.53,1.47,16.04,4.42,3.51,2.95,5.27,6.75,5.27,11.42,0,1.93-.35,3.95-1.05,6.07-.7,2.12-1.9,4.07-3.62,5.87-1.72,1.8-4.06,3.26-7.04,4.38-2.97,1.12-6.77,1.69-11.38,1.69h-8.04v-1.61h7.24c3.38,0,5.96-.72,7.76-2.17,1.8-1.45,3-3.35,3.62-5.71.62-2.36.93-4.91.93-7.64,0-5.09-.83-8.9-2.49-11.42-1.66-2.52-4.53-3.78-8.61-3.78-2.2,0-3.63.46-4.3,1.37-.67.91-1.01,2.76-1.01,5.55v39.57c0,2.04.21,3.57.64,4.58.43,1.02,1.26,1.69,2.49,2.01,1.23.32,3,.51,5.31.56v1.69c-1.55-.11-3.57-.17-6.03-.2-2.47-.03-5.01-.04-7.64-.04-2.25,0-4.42.01-6.51.04-2.09.03-3.91.09-5.47.2v-1.61c1.77-.11,3.1-.32,3.98-.64.88-.32,1.47-.96,1.77-1.93.29-.97.44-2.41.44-4.34v-39.89c0-1.98-.15-3.44-.44-4.38-.3-.94-.88-1.58-1.77-1.93-.89-.35-2.21-.55-3.98-.6v-1.61Z" fill="#5c6a7a"/><path d="M1231.33,545.32c10.29,0,17.92,2.4,22.88,7.2,4.96,4.8,7.44,11.67,7.44,20.63,0,5.84-1.22,10.95-3.66,15.32-2.44,4.37-5.96,7.76-10.57,10.17-4.61,2.41-10.21,3.62-16.81,3.62-.8,0-1.89-.03-3.26-.08-1.37-.05-2.79-.09-4.26-.12-1.48-.03-2.83-.04-4.06-.04-2.2,0-4.34.01-6.43.04-2.09.03-3.81.09-5.15.2v-1.61c1.77-.11,3.1-.32,3.98-.64.88-.32,1.47-.96,1.77-1.93.29-.97.44-2.41.44-4.34v-39.89c0-1.98-.15-3.44-.44-4.38-.3-.94-.88-1.58-1.77-1.93-.89-.35-2.21-.55-3.98-.6v-1.61c1.34.05,3.06.12,5.15.2,2.09.08,4.18.09,6.27.04,1.93-.05,4.1-.11,6.51-.16s4.39-.08,5.95-.08ZM1230.6,546.76c-2.47,0-4.08.46-4.83,1.37-.75.91-1.13,2.76-1.13,5.55v40.21c0,2.79.39,4.64,1.17,5.55.78.91,2.4,1.37,4.87,1.37,4.99,0,8.89-1.06,11.7-3.18,2.81-2.12,4.8-5.21,5.95-9.29,1.15-4.07,1.73-9.03,1.73-14.88s-.63-10.98-1.89-14.92-3.31-6.89-6.15-8.85c-2.84-1.96-6.65-2.94-11.42-2.94Z" fill="#5c6a7a"/></svg>